<svg width="314" height="314" viewBox="0 0 314 314" fill="none" xmlns="http://www.w3.org/2000/svg">
<path d="M294.361 161.53C294.266 160.297 293.709 159.146 292.802 158.306C291.895 157.466 290.705 157 289.469 157H219.07L215.869 92.9735C215.806 91.7163 215.262 90.5314 214.35 89.6639C213.438 88.7964 212.227 88.3126 210.969 88.3126H176.625V63.7813C176.627 56.7165 174.934 49.7543 171.687 43.4798C168.44 37.2052 163.735 31.8017 157.966 27.7232C152.198 23.6447 145.534 21.0105 138.536 20.0419C131.538 19.0732 124.41 19.7985 117.75 22.1567C111.09 19.7985 103.962 19.0732 96.9639 20.0419C89.9658 21.0105 83.3024 23.6447 77.5337 27.7232C71.765 31.8017 67.0595 37.2052 63.8127 43.4798C60.5659 49.7543 58.8725 56.7165 58.875 63.7813V88.3126H24.5313C23.2725 88.3126 22.0619 88.7964 21.1499 89.6639C20.2378 90.5314 19.6941 91.7163 19.6311 92.9735L9.81864 289.224C9.78539 289.888 9.88749 290.552 10.1187 291.175C10.35 291.798 10.7055 292.368 11.1638 292.85C11.6221 293.332 12.1736 293.716 12.7847 293.978C13.3958 294.24 14.0538 294.375 14.7188 294.375H299.281C299.957 294.375 300.626 294.235 301.246 293.965C301.865 293.694 302.422 293.298 302.881 292.802C303.341 292.306 303.693 291.721 303.915 291.082C304.137 290.444 304.225 289.766 304.173 289.092L294.361 161.53ZM279.656 268.876L290.114 284.563H269.201L279.656 268.876ZM292.95 271.126L284.417 258.327L275.265 166.813H284.926L292.95 271.126ZM265.404 166.813L274.603 258.772L263.834 274.922L255.517 166.813H265.404ZM209.245 157H200.011L196.547 98.1251H206.299L209.245 157ZM186.718 98.1251L190.182 157H179.817L176.873 98.1251H186.718ZM132.469 29.4376C141.574 29.448 150.304 33.0697 156.742 39.5081C163.18 45.9466 166.802 54.676 166.812 63.7813V88.3126H147.188V63.7813C147.188 57.2032 145.715 50.7084 142.879 44.773C140.043 38.8377 135.914 33.6123 130.796 29.4799C131.351 29.4535 131.908 29.4376 132.469 29.4376ZM117.75 32.7579C123.618 35.5468 128.576 39.9411 132.049 45.4317C135.522 50.9222 137.369 57.2844 137.375 63.7813V88.3126H98.125V63.7813C98.1313 57.2844 99.978 50.9222 103.451 45.4317C106.924 39.9411 111.882 35.5468 117.75 32.7579ZM68.6875 63.7813C68.6979 54.676 72.3196 45.9466 78.758 39.5081C85.1965 33.0697 93.9259 29.448 103.031 29.4376C103.592 29.4376 104.149 29.4535 104.704 29.4799C99.5854 33.6122 95.4569 38.8376 92.6206 44.773C89.7844 50.7083 88.3124 57.2031 88.3125 63.7813V88.3126H68.6875V63.7813ZM127.926 284.563H19.8764L29.1983 98.1251H58.875V129.843L46.3408 138.199C45.6688 138.647 45.1178 139.254 44.7367 139.966C44.3557 140.679 44.1563 141.474 44.1563 142.281V181.531C44.1563 182.833 44.6732 184.08 45.5933 185.001C46.5134 185.921 47.7613 186.438 49.0625 186.438H78.5C79.8012 186.438 81.0492 185.921 81.9693 185.001C82.8894 184.08 83.4063 182.833 83.4063 181.531V142.281C83.4062 141.474 83.2069 140.679 82.8258 139.966C82.4447 139.254 81.8937 138.647 81.2217 138.199L68.6875 129.843V98.1251H137.375V112.844C137.375 114.145 137.892 115.393 138.812 116.313C139.732 117.233 140.98 117.75 142.281 117.75C143.582 117.75 144.83 117.233 145.751 116.313C146.671 115.393 147.188 114.145 147.188 112.844V98.1251H167.052L169.995 157H142.281C141.045 157 139.855 157.466 138.948 158.306C138.041 159.146 137.484 160.297 137.389 161.53L127.926 284.563ZM63.7813 138.366L73.5938 144.907V176.625H53.9688V144.907L63.7813 138.366ZM146.824 166.813H245.676L254.733 284.563H137.767L146.824 166.813Z" fill="#B5C2C1"/>
<path d="M220.781 186.438C219.48 186.438 218.232 186.954 217.312 187.875C216.392 188.795 215.875 190.043 215.875 191.344V230.594C215.871 234.496 214.318 238.237 211.559 240.997C208.8 243.756 205.059 245.308 201.156 245.312H191.344C187.441 245.308 183.7 243.756 180.941 240.997C178.182 238.237 176.629 234.496 176.625 230.594V191.344C176.625 190.043 176.108 188.795 175.188 187.875C174.268 186.954 173.02 186.438 171.719 186.438C170.418 186.438 169.17 186.954 168.25 187.875C167.329 188.795 166.812 190.043 166.812 191.344V230.594C166.82 237.098 169.407 243.333 174.006 247.932C178.605 252.531 184.84 255.118 191.344 255.125H201.156C207.66 255.118 213.895 252.531 218.494 247.932C223.093 243.333 225.68 237.098 225.688 230.594V191.344C225.688 190.043 225.171 188.795 224.25 187.875C223.33 186.954 222.082 186.438 220.781 186.438Z" fill="#B5C2C1"/>
</svg>
