<svg width="267" height="254" viewBox="0 0 267 254" fill="none" xmlns="http://www.w3.org/2000/svg"><path d="M2 2h35.661v142.644" stroke="#212121" stroke-width="4" stroke-miterlimit="10" stroke-linecap="square"/><path d="M55.491 251.627c12.31 0 22.288-9.979 22.288-22.288 0-12.309-9.978-22.288-22.288-22.288s-22.288 9.979-22.288 22.288c0 12.309 9.979 22.288 22.288 22.288zM242.712 251.627c12.309 0 22.288-9.979 22.288-22.288 0-12.309-9.979-22.288-22.288-22.288-12.309 0-22.288 9.979-22.288 22.288 0 12.309 9.979 22.288 22.288 22.288z" stroke="#D63E3E" stroke-width="4" stroke-miterlimit="10" stroke-linecap="square"/><path d="M37.66 37.661h205.051l-26.745 106.983H37.661a17.83 17.83 0 00-17.83 17.831v0a17.83 17.83 0 0017.83 17.83h222.881" stroke="#212121" stroke-width="4" stroke-miterlimit="10" stroke-linecap="square"/></svg>