<svg xmlns="http://www.w3.org/2000/svg" width="201" height="201" fill="none" viewBox="0 0 201 201"><path fill="currentColor" d="M16.08 85.275l-.427 3.559-.39-.047.054-.445c.05-.408-.056-.627-.316-.658-.037-.004-.2.023-.489.082l-2.588.65-.42 3.502 2.254 1.2c.018.003.13.05.336.14.196.089.336.139.419.148.074.01.131-.035.171-.134.04-.099.08-.315.12-.648l.027-.223.39.047-.327 2.724-.39-.046.024-.195c.036-.306.012-.534-.073-.685-.095-.153-.261-.295-.499-.427l-7.613-4.014c-.003-.048-.058-.139-.164-.274a6.282 6.282 0 0 0-.35-.38c-.126-.118-.199-.179-.217-.181-.019-.002-.033 0-.044.009l-.032-.201 9.362-2.347c.225-.077.4-.16.523-.248.115-.099.185-.25.21-.454l.06-.5.388.046zm-4.77 3.32L7.156 89.62l3.793 2.006.363-3.03zm10.57-21.469l-9.943 2.852 6.573 2.489c.384.145.678-.053.883-.594l.189-.497.392.148-1.19 3.143-.392-.15.158-.418c.205-.541.116-.885-.268-1.03l-7.227-2.737c-.384-.145-.679.053-.884.594l-.159.419-.392-.149.783-2.069 9.296-2.647-6.284-2.38c-.384-.145-.676.044-.874.568l-.169.445-.392-.149 1.19-3.142.392.148-.188.498c-.205.541-.115.884.269 1.03l8.143 3.084a.603.603 0 0 0 0 .359c.047.137.078.2.094.185zm5.934-11.914l-3.66 6.55-.343-.19.233-.416c.132-.236.173-.416.125-.54-.044-.131-.164-.251-.36-.36l-6.746-3.77a.626.626 0 0 0-.492-.067c-.16.039-.293.152-.398.34l-.232.415-.342-.191 3.605-6.453 1.741.844-.117.383c-.294-.163-.64-.202-1.042-.116-.4.086-.72.34-.956.764l-1.243 2.225c-.137.244-.177.43-.12.558.049.124.159.233.33.329l2.786 1.557 1.366-2.445c.068-.122.117-.218.145-.288a.34.34 0 0 0-.039-.246c-.041-.098-.131-.185-.27-.263l-.562-.314.205-.367 2.542 1.42-.205.367-.513-.286c-.204-.114-.36-.142-.466-.084-.116.053-.223.169-.324.348l-1.365 2.445 3.153 1.761c.171.096.326.134.465.116.13-.024.264-.157.4-.402l1.298-2.322c.241-.432.314-.888.22-1.369-.09-.489-.262-.814-.514-.976l.24-.315 1.455 1.358zm8.103-10.6l-.073.227-6.685-2.343 3.257 5.127.227 1.11-.074.228-9.032-3.17a1.27 1.27 0 0 0-.544-.058c-.144.017-.286.113-.425.288l-.297.373-.329-.261 2.16-2.719.33.261-.21.263c-.255.322-.288.558-.098.71.058.045.191.103.399.173l7.061 2.499-3.257-5.127-1.515-.524c-.303-.098-.503-.132-.6-.1a.626.626 0 0 0-.283.22l-.07.088-.329-.26 1.951-2.456.33.261-.314.395c-.267.336-.313.574-.138.713.088.07.228.133.42.191l7.08 2.477-3.917-6.187c-.223-.32-.37-.51-.444-.567-.08-.064-.172-.053-.275.031-.105.072-.276.258-.514.557l-.122.154-.33-.261 1.708-2.149.329.261-.157.198c-.186.234-.275.413-.267.539.008.125.092.311.253.558l4.568 7.17.226 1.11zm14.521-13.501l-2.894 2.209-.237-.312.445-.34c.222-.17.332-.318.33-.445-.01-.134-.073-.28-.192-.435l-4.587-6.01a1.407 1.407 0 0 0-.217-.238c-.066-.056-.16-.078-.281-.068-.114.005-.249.066-.405.185l-.667.51c-.393.3-.604.655-.633 1.064-.026.396.058.736.253 1.022l-.363.171-1.06-1.62 6.254-4.774 1.283 1.45-.26.305c-.22-.255-.53-.424-.932-.504-.402-.08-.796.026-1.181.32l-.668.51c-.163.125-.263.248-.3.37-.041.114-.047.206-.017.277.03.07.088.162.173.273l4.587 6.01c.08.103.15.18.21.227.06.048.15.067.271.057.122-.01.264-.078.427-.203l.423-.322.238.311zm13.2-8.009l-3.129 1.747-.191-.342.391-.219c.359-.2.474-.414.347-.642-.018-.033-.136-.149-.354-.348l-2.046-1.711-3.08 1.72.352 2.528c.01.016.038.134.086.353.043.211.085.353.125.427.037.065.107.085.21.06.103-.026.302-.121.595-.285l.196-.11.19.343-2.395 1.338-.191-.343.17-.095c.27-.15.44-.304.512-.462.068-.166.085-.384.052-.654l-1.227-8.518c.036-.031.077-.13.124-.294.042-.173.076-.342.102-.506.022-.173.028-.267.019-.283-.01-.017-.02-.027-.033-.03l.144-.145 7.402 6.194c.194.138.363.23.508.278.147.035.311.002.49-.098l.44-.245.191.342zm-5.489-1.906l-3.272-2.76.607 4.247 2.665-1.487zm8.48-.061l-.478-1.768.454-.146c.186.478.62.755 1.3.831.686.064 1.39-.045 2.111-.326.731-.284 1.237-.606 1.517-.966.278-.368.35-.722.218-1.061-.223-.574-.727-.969-1.512-1.184a6.127 6.127 0 0 0-.984-.173l-1.444-.16a6.377 6.377 0 0 0-.646-.078 7.232 7.232 0 0 1-.678-.082 8.451 8.451 0 0 1-.692-.196c-.57-.179-.939-.482-1.105-.908-.169-.435-.242-.842-.22-1.221.032-.383.125-.71.28-.98a3.48 3.48 0 0 1 .644-.777 5.58 5.58 0 0 1 1.663-.977 4.227 4.227 0 0 1 2.098-.246l.432 1.575-.443.172c-.319-.817-1.165-.959-2.54-.424-.634.247-1.073.533-1.317.859-.236.322-.286.657-.15 1.004.216.557 1.382.875 3.495.954 1.392.049 2.374.323 2.949.82.287.249.503.56.649.934.352.905.259 1.747-.279 2.527-.529.777-1.306 1.365-2.333 1.765-1.026.4-2.023.476-2.99.232zM82.365 16.8l-3.533.874-.094-.38.543-.135c.272-.068.432-.16.48-.278.045-.126.044-.285-.003-.475l-1.816-7.339a1.41 1.41 0 0 0-.104-.305c-.039-.077-.115-.135-.23-.174-.107-.041-.255-.038-.446.009l-.815.202c-.48.119-.815.36-1.003.724-.182.353-.24.699-.176 1.039l-.4.012-.329-1.909 7.638-1.89.6 1.842-.36.176c-.1-.322-.317-.6-.654-.834-.337-.234-.74-.293-1.212-.176l-.815.202c-.2.05-.34.122-.422.22-.084.088-.126.17-.126.247 0 .077.017.184.05.32l1.816 7.338c.032.127.066.224.102.292.036.068.111.122.227.16.115.04.272.034.472-.015l.516-.128.094.38zm13.31-1.932l-7.459.82-.042-.39.473-.052c.269-.03.44-.1.512-.211.081-.113.11-.28.085-.503l-.843-7.682a.626.626 0 0 0-.231-.439c-.125-.108-.294-.15-.507-.127l-.473.051-.043-.39 7.348-.806.322 1.908-.38.127c-.037-.334-.207-.64-.51-.916-.302-.277-.695-.389-1.177-.336l-2.533.278c-.278.03-.453.106-.524.227-.073.111-.098.264-.077.459l.349 3.173 2.783-.306c.139-.015.245-.031.318-.049a.34.34 0 0 0 .178-.174c.056-.09.075-.215.058-.373l-.07-.64.417-.046.318 2.895-.417.046-.065-.585c-.025-.232-.092-.374-.202-.428-.11-.063-.267-.083-.471-.061l-2.783.305.394 3.59c.021.196.08.344.175.446.095.093.282.124.56.094l2.644-.29a1.95 1.95 0 0 0 1.242-.616c.346-.357.512-.685.498-.984l.396.013-.263 1.972zm20.778 1.197l-3.559-.426.047-.389.444.053c.408.05.628-.056.659-.316.004-.037-.023-.2-.083-.489l-.649-2.587-3.503-.42-1.2 2.254c-.002.018-.049.13-.139.336-.089.196-.139.335-.149.419-.009.074.036.131.135.171.098.04.314.08.648.12l.222.027-.046.389-2.725-.326.047-.39.194.024c.306.036.535.012.686-.073.152-.095.294-.261.426-.5l4.013-7.612c.048-.004.139-.059.274-.165.136-.115.263-.232.38-.35.119-.126.179-.199.181-.217.003-.019 0-.033-.009-.044l.202-.032 2.348 9.361c.076.226.159.4.247.524.099.115.251.185.455.21l.5.059-.046.39zm-3.321-4.768l-1.026-4.156-2.005 3.793 3.031.363zm21.471 10.565l-2.854-9.942-2.488 6.573c-.145.384.053.679.594.884l.498.188-.149.393-3.142-1.19.148-.393.419.159c.542.205.885.115 1.03-.269l2.736-7.227c.145-.385-.053-.679-.594-.884l-.419-.158.149-.393 2.069.783 2.648 9.296 2.379-6.285c.146-.384-.043-.675-.567-.874l-.445-.168.148-.393 3.143 1.19-.149.392-.497-.188c-.542-.205-.885-.115-1.03.269l-3.083 8.144a.604.604 0 0 0-.359-.001c-.138.047-.199.079-.185.094zm11.914 5.934l-6.551-3.66.191-.342.416.232c.236.132.416.174.539.125.132-.044.252-.164.362-.36l3.768-6.746a.63.63 0 0 0 .067-.492c-.039-.16-.152-.294-.339-.398l-.416-.232.191-.342 6.454 3.604-.845 1.742-.383-.118c.164-.294.203-.64.117-1.042-.086-.4-.341-.72-.765-.956l-2.224-1.242c-.245-.137-.431-.177-.559-.12-.123.049-.233.158-.329.33l-1.556 2.786 2.444 1.366c.123.068.219.116.288.145.075.02.157.007.246-.04.098-.04.186-.13.264-.27l.314-.562.366.205-1.42 2.543-.366-.205.286-.514c.114-.203.142-.359.084-.466-.053-.115-.169-.223-.348-.323l-2.445-1.365-1.761 3.153c-.096.171-.134.326-.116.465.024.13.157.264.402.4l2.322 1.298a1.95 1.95 0 0 0 1.369.22c.489-.091.814-.262.976-.514l.315.24-1.358 1.455zm10.602 8.101l-.227-.073 2.342-6.686-5.127 3.259-1.11.227-.227-.074 3.169-9.032a1.27 1.27 0 0 0 .057-.545c-.016-.144-.112-.286-.288-.425l-.373-.296.262-.33 2.718 2.16-.261.329-.263-.21c-.322-.255-.558-.287-.709-.097-.046.058-.104.191-.173.398l-2.499 7.063 5.127-3.259.524-1.515c.098-.303.132-.503.101-.599a.627.627 0 0 0-.222-.283l-.088-.07.261-.329 2.456 1.95-.261.33-.395-.314c-.336-.267-.574-.313-.713-.137a1.27 1.27 0 0 0-.191.42l-2.477 7.08 6.187-3.918c.32-.223.509-.37.567-.444.064-.08.054-.172-.031-.275-.072-.105-.258-.276-.557-.514l-.154-.122.261-.33 2.149 1.707-.261.33-.197-.157c-.234-.186-.414-.275-.539-.267-.126.007-.312.092-.559.253l-7.169 4.568-1.11.227zm13.502 14.519l-2.209-2.893.312-.238.34.445c.17.222.318.332.445.33.134-.01.279-.073.435-.192l6.009-4.588a1.42 1.42 0 0 0 .239-.217c.056-.066.078-.16.068-.28-.005-.115-.067-.25-.186-.405l-.51-.668c-.3-.393-.654-.604-1.063-.632-.396-.027-.737.057-1.023.252l-.171-.362 1.62-1.061 4.775 6.253-1.451 1.284-.304-.26c.255-.22.424-.53.504-.932.081-.402-.026-.796-.321-1.181l-.51-.668c-.124-.163-.247-.263-.369-.3-.114-.041-.207-.047-.277-.017-.071.03-.162.089-.273.174l-6.009 4.587c-.104.08-.18.15-.228.21-.048.06-.067.15-.056.271.01.122.077.264.202.427l.323.423-.312.238zm8.011 13.199l-1.747-3.129.342-.191.218.391c.2.359.415.474.643.347.032-.018.148-.136.347-.355l1.712-2.046-1.72-3.08-2.529.354a3.58 3.58 0 0 1-.353.085c-.211.043-.353.085-.427.126-.065.036-.085.106-.059.21.025.103.12.3.284.594l.109.196-.342.191-1.338-2.396.342-.19.096.17c.15.27.304.44.462.512.166.067.384.085.654.051l8.518-1.228c.031.036.129.077.294.124.173.042.342.077.506.102.172.022.267.028.283.019.016-.01.026-.02.03-.033l.144.144-6.192 7.403a2.02 2.02 0 0 0-.278.507c-.035.148-.003.312.097.491l.246.44-.342.191zm1.905-5.49l2.759-3.272-4.247.608 1.488 2.665zm.063 8.48l1.767-.477.146.454c-.478.186-.755.62-.831 1.3-.063.685.045 1.39.326 2.111.285.73.607 1.236.967 1.517.368.277.722.35 1.061.218.574-.224.969-.728 1.184-1.513a6.18 6.18 0 0 0 .173-.984c.083-.763.136-1.244.159-1.444a6.36 6.36 0 0 0 .078-.646 7.15 7.15 0 0 1 .082-.678c.049-.21.114-.44.196-.692.179-.57.481-.939.908-1.105.434-.169.842-.242 1.221-.22.383.032.709.125.98.28.274.163.533.378.777.644.398.456.723 1.01.977 1.662.258.661.34 1.36.246 2.098l-1.574.433-.173-.444c.818-.318.959-1.164.424-2.539-.247-.635-.533-1.074-.859-1.318-.322-.235-.657-.285-1.004-.15-.557.217-.875 1.382-.953 3.496-.049 1.392-.323 2.374-.82 2.949a2.338 2.338 0 0 1-.935.649c-.904.352-1.746.26-2.527-.278-.776-.53-1.365-1.307-1.764-2.333-.4-1.026-.477-2.023-.232-2.99zm4.337 15.736l-.875-3.533.381-.094.134.543c.067.272.16.432.277.48.127.045.286.044.476-.003l7.338-1.817a1.41 1.41 0 0 0 .306-.105c.077-.038.135-.115.174-.23.041-.106.038-.255-.009-.445l-.202-.815c-.119-.48-.361-.815-.725-1.004-.352-.181-.699-.24-1.038-.175l-.013-.4 1.909-.33 1.891 7.638-1.842.6-.175-.36c.321-.099.599-.317.833-.653.234-.337.293-.741.176-1.212l-.202-.816c-.049-.199-.123-.34-.22-.421-.088-.084-.17-.126-.247-.126-.077 0-.184.016-.32.05l-7.338 1.817a1.321 1.321 0 0 0-.292.101c-.068.036-.122.112-.16.227-.039.116-.034.273.016.472l.127.517-.38.094zm1.933 13.311l-.82-7.46.389-.042.052.473c.03.269.1.44.212.512.112.081.279.11.502.086l7.682-.845a.626.626 0 0 0 .439-.231c.108-.125.151-.294.127-.507l-.052-.473.39-.043.808 7.348-1.908.322-.127-.38c.334-.037.639-.207.916-.51.277-.302.388-.695.335-1.177l-.278-2.533c-.031-.278-.106-.453-.227-.524-.111-.073-.264-.098-.459-.077l-3.173.35.306 2.782c.016.14.032.246.049.319a.34.34 0 0 0 .175.178c.091.056.215.075.372.058l.641-.07.045.417-2.894.318-.046-.418.584-.064c.232-.025.375-.093.429-.202.063-.11.083-.267.061-.471l-.306-2.784-3.59.395c-.195.021-.344.08-.446.176-.093.094-.124.281-.093.56l.29 2.643c.054.492.259.906.616 1.243.357.345.685.511.984.497l-.013.396-1.972-.262zm-1.194 20.777l.426-3.559.389.047-.053.445c-.049.408.056.627.316.658.037.004.2-.023.489-.083l2.587-.649.419-3.503-2.253-1.2a3.542 3.542 0 0 1-.336-.139c-.196-.089-.336-.139-.42-.149-.074-.009-.131.036-.171.135-.04.099-.08.315-.12.648l-.026.223-.389-.047.325-2.724.39.046-.024.195c-.036.306-.012.534.073.685.095.153.261.295.499.426l7.614 4.013c.004.047.059.138.165.273.115.136.231.263.349.38.127.119.199.179.218.181.019.003.033 0 .043-.008l.033.201-9.361 2.349c-.226.077-.4.159-.523.248-.116.099-.186.25-.21.454l-.06.501-.389-.047zm4.768-3.321l4.155-1.026-3.793-2.005-.362 3.031zm-10.563 21.471l9.941-2.854-6.573-2.487c-.384-.146-.678.052-.883.594l-.188.497-.393-.148 1.189-3.143.393.149-.159.419c-.205.541-.115.884.269 1.029l7.228 2.735c.384.146.679-.052.883-.593l.159-.419.393.148-.783 2.069-9.295 2.65 6.285 2.378c.384.145.675-.044.873-.568l.169-.445.392.149-1.189 3.142-.393-.148.189-.498c.205-.541.115-.884-.269-1.03l-8.145-3.081a.596.596 0 0 0 .001-.359c-.047-.138-.079-.2-.094-.186zm-5.931 11.916l3.658-6.551.343.191-.232.415c-.132.237-.174.416-.125.54.044.131.164.252.359.361l6.748 3.768a.625.625 0 0 0 .492.066c.16-.039.293-.152.398-.339l.232-.416.342.192-3.604 6.453-1.742-.844.118-.383c.294.164.641.203 1.042.117.4-.087.719-.342.956-.765l1.242-2.225c.137-.244.176-.431.12-.559-.049-.123-.159-.232-.33-.328l-2.787-1.556-1.365 2.444a2.959 2.959 0 0 0-.145.288.342.342 0 0 0 .039.247c.041.098.131.185.27.263l.562.314-.204.366-2.543-1.419.205-.367.513.287c.204.113.359.141.466.084.116-.054.223-.17.323-.349l1.366-2.445-3.154-1.761c-.171-.095-.326-.134-.465-.115-.13.023-.264.157-.4.401l-1.297 2.323a1.946 1.946 0 0 0-.22 1.369c.091.489.262.814.514.976l-.24.315-1.455-1.358zm-8.101 10.603l.073-.228 6.686 2.342-3.259-5.127-.227-1.109.074-.228 9.033 3.168c.213.062.394.081.544.057.145-.016.286-.112.426-.288l.296-.373.329.262-2.159 2.719-.329-.262.209-.263c.255-.321.288-.558.098-.709-.059-.046-.192-.104-.399-.173l-7.063-2.497 3.259 5.126 1.515.523c.304.098.504.132.6.101a.627.627 0 0 0 .283-.222l.07-.088.329.262-1.95 2.456-.329-.262.313-.394c.267-.337.313-.574.137-.714a1.279 1.279 0 0 0-.42-.19l-7.08-2.476 3.919 6.186c.222.32.37.509.443.567.081.064.173.054.276-.031.105-.072.276-.258.514-.557l.122-.154.329.261-1.707 2.149-.329-.261.157-.197c.186-.234.275-.414.267-.539-.008-.126-.092-.312-.253-.559l-4.57-7.168-.227-1.11zm-14.517 13.504l2.893-2.209.238.312-.445.339c-.223.17-.333.319-.33.446.009.134.073.279.192.435l4.588 6.008c.085.111.158.191.218.239.066.055.159.078.28.068.114-.005.249-.067.405-.186l.667-.51c.394-.3.604-.655.632-1.064.027-.396-.057-.737-.252-1.022l.362-.171 1.062 1.62-6.253 4.775-1.284-1.45.26-.305c.219.256.529.424.932.504.402.081.795-.026 1.181-.321l.668-.509c.163-.125.263-.248.299-.37.042-.114.048-.207.017-.277a1.365 1.365 0 0 0-.173-.273l-4.588-6.008a1.318 1.318 0 0 0-.21-.228c-.06-.048-.15-.067-.272-.057-.121.011-.263.078-.426.203l-.423.323-.238-.312zm-13.198 8.012l3.128-1.748.192.342-.391.219c-.359.2-.475.414-.347.643.018.032.136.148.354.347l2.047 1.711 3.08-1.72-.354-2.529a3.403 3.403 0 0 1-.085-.353 1.757 1.757 0 0 0-.126-.427c-.037-.065-.107-.085-.21-.059-.103.026-.302.12-.595.284l-.196.109-.191-.342 2.396-1.338.191.342-.171.096c-.269.15-.439.304-.512.462-.067.166-.084.384-.051.654l1.23 8.518c-.036.031-.078.129-.125.294a6.387 6.387 0 0 0-.102.506c-.021.172-.027.267-.018.283a.06.06 0 0 0 .032.03l-.143.144-7.404-6.192a2.026 2.026 0 0 0-.508-.277c-.147-.035-.311-.003-.49.097l-.44.246-.191-.342zm5.489 1.905l3.273 2.758-.608-4.247-2.665 1.489zm-8.479.064l.478 1.767-.454.146c-.186-.478-.62-.755-1.3-.83-.686-.064-1.39.045-2.111.326-.731.285-1.237.607-1.517.966-.277.369-.35.722-.218 1.062.224.574.728.968 1.513 1.183.323.085.651.142.984.173.763.083 1.245.136 1.444.159.194.035.409.061.646.079.238.017.464.045.678.081.209.049.44.114.693.196.57.179.938.481 1.104.907.169.435.243.842.22 1.222a2.334 2.334 0 0 1-.279.98 3.49 3.49 0 0 1-.644.777c-.456.398-1.01.723-1.663.978a4.235 4.235 0 0 1-2.097.246l-.433-1.575.443-.172c.319.817 1.165.958 2.539.423.635-.247 1.074-.533 1.318-.859.236-.322.285-.657.15-1.005-.217-.556-1.382-.874-3.496-.952-1.391-.049-2.374-.322-2.948-.82a2.324 2.324 0 0 1-.65-.934c-.352-.904-.259-1.747.278-2.527.529-.777 1.306-1.365 2.333-1.765 1.026-.399 2.022-.477 2.989-.232zm-15.735 4.339l3.533-.875.094.38-.543.135c-.272.067-.432.159-.48.277-.045.127-.044.285.003.475l1.818 7.339c.033.135.068.237.104.305.039.077.116.135.231.174.106.041.255.038.445-.009l.815-.202c.48-.119.815-.361 1.003-.725.182-.352.241-.699.176-1.038l.4-.013.329 1.909-7.637 1.892-.601-1.842.361-.175c.099.321.317.599.653.833.337.234.741.292 1.212.176l.816-.202c.199-.05.339-.123.421-.22.084-.088.126-.171.126-.248 0-.077-.016-.183-.05-.319l-1.818-7.338a1.36 1.36 0 0 0-.101-.292c-.036-.068-.112-.122-.228-.161-.115-.038-.272-.033-.472.016l-.516.128-.094-.38zm-13.31 1.935l7.459-.821.043.39-.473.052c-.269.029-.44.1-.512.211-.082.112-.11.28-.086.502l.846 7.682c.02.185.097.332.231.439.125.109.294.151.507.127l.473-.052.043.39-7.348.809-.322-1.909.38-.126c.037.334.207.639.509.916.303.276.696.388 1.178.335l2.533-.279c.278-.03.453-.106.524-.226.073-.112.098-.265.077-.459l-.35-3.173-2.783.306a2.806 2.806 0 0 0-.318.049.336.336 0 0 0-.178.175c-.056.09-.075.214-.058.372l.07.64-.417.046-.319-2.894.418-.046.064.584c.026.232.093.375.202.429.111.063.268.083.472.061l2.783-.307-.395-3.59c-.021-.195-.08-.343-.176-.446-.095-.092-.281-.123-.559-.093l-2.644.291a1.949 1.949 0 0 0-1.243.616c-.345.357-.511.685-.497.984l-.396-.013.262-1.972zm-20.778-1.191l3.56.424-.047.39-.445-.053c-.408-.049-.627.056-.658.316-.005.037.023.2.082.489l.65 2.587 3.503.419 1.2-2.254c.002-.018.048-.13.139-.336.089-.196.138-.336.148-.419.01-.074-.036-.131-.134-.171-.099-.04-.315-.08-.649-.12l-.222-.027.047-.389 2.724.326-.046.389-.195-.024c-.306-.036-.534-.012-.685.074-.153.094-.295.261-.427.499l-4.01 7.614c-.048.004-.14.058-.274.165a6.003 6.003 0 0 0-.38.349c-.119.127-.18.199-.182.218-.002.019.001.033.01.043l-.202.033-2.35-9.361a2.03 2.03 0 0 0-.248-.523c-.1-.115-.25-.185-.455-.209l-.5-.06.046-.389zm3.323 4.767l1.026 4.155 2.004-3.793-3.03-.362zm-21.474-10.56l2.856 9.941 2.486-6.573c.145-.384-.053-.679-.594-.884l-.498-.188.149-.393 3.143 1.189-.149.393-.419-.159c-.541-.204-.885-.115-1.03.269l-2.734 7.229c-.145.384.053.678.594.883l.42.158-.15.393-2.068-.782-2.651-9.295-2.378 6.285c-.145.384.044.675.568.874l.445.168-.148.393-3.143-1.189.148-.393.498.188c.541.205.885.116 1.03-.269l3.08-8.144a.611.611 0 0 0 .36.001c.137-.048.199-.08.185-.095zm-11.916-5.93l6.552 3.657-.191.343-.416-.232c-.236-.132-.416-.174-.54-.125-.131.044-.252.164-.36.359l-3.768 6.748a.626.626 0 0 0-.066.492c.039.161.152.293.34.398l.415.232-.191.342-6.455-3.603.844-1.741.384.118c-.164.293-.203.64-.117 1.041.086.401.341.719.765.956l2.225 1.242c.245.136.43.176.559.119.123-.048.233-.158.328-.329l1.556-2.787-2.445-1.365a2.807 2.807 0 0 0-.288-.145.34.34 0 0 0-.246.039c-.098.041-.186.131-.263.27l-.314.562-.367-.204 1.42-2.543.366.205-.286.513c-.114.204-.142.359-.084.466.053.116.17.223.349.323l2.444 1.365 1.761-3.154c.096-.171.134-.326.115-.465-.023-.13-.157-.264-.401-.4l-2.323-1.297a1.95 1.95 0 0 0-1.369-.219c-.489.091-.814.262-.976.514l-.315-.24 1.358-1.455zm-10.604-8.099l.227.073-2.34 6.686 5.126-3.259 1.11-.228.227.074-3.167 9.033c-.062.213-.08.395-.057.545.017.144.113.286.288.425l.373.296-.261.329-2.72-2.159.262-.329.263.209c.322.256.558.288.709.098.046-.058.104-.191.173-.398l2.497-7.063-5.126 3.259-.524 1.515c-.098.304-.131.504-.1.6a.62.62 0 0 0 .222.283l.087.07-.26.329-2.457-1.95.261-.329.395.313c.336.267.574.313.713.138.07-.088.134-.228.191-.421l2.475-7.08-6.186 3.919c-.32.223-.509.371-.567.444-.064.081-.053.172.032.275.071.105.257.276.557.514l.153.122-.26.329-2.15-1.706.261-.329.198.157c.234.186.413.275.538.267.126-.008.312-.093.56-.254l7.167-4.57 1.11-.227zm-13.506-14.516l2.21 2.893-.312.238-.34-.445c-.17-.223-.318-.332-.445-.329-.134.008-.28.072-.435.191l-6.008 4.589a1.47 1.47 0 0 0-.239.218c-.055.066-.078.159-.067.281.004.113.066.248.185.404l.51.667c.3.394.655.604 1.064.632.396.027.737-.058 1.023-.252l.171.362-1.62 1.062-4.777-6.253 1.45-1.284.306.261c-.256.218-.424.529-.505.931-.08.402.027.796.322 1.182l.51.667c.124.163.247.263.369.299.114.042.207.048.277.017.071-.03.162-.088.273-.173l6.008-4.589a1.32 1.32 0 0 0 .228-.209c.048-.06.067-.151.056-.272-.01-.122-.078-.264-.203-.427l-.322-.423.311-.238zm-8.014-13.197l1.748 3.129-.343.191-.218-.391c-.2-.359-.415-.474-.643-.347-.032.018-.148.137-.347.355l-1.711 2.046 1.72 3.08 2.53-.354a3.26 3.26 0 0 1 .352-.085c.212-.044.354-.086.427-.127.065-.036.085-.106.06-.209-.026-.103-.12-.302-.285-.595l-.11-.196.343-.191 1.339 2.396-.343.191-.095-.171c-.15-.269-.304-.44-.462-.512-.166-.067-.385-.084-.655-.051l-8.517 1.231c-.031-.036-.13-.078-.294-.125a6.39 6.39 0 0 0-.506-.102c-.173-.021-.267-.027-.283-.018-.017.009-.026.02-.03.033l-.144-.144 6.19-7.404c.138-.195.23-.364.278-.508.035-.148.002-.312-.098-.491l-.246-.44.343-.191zm-1.904 5.49l-2.758 3.273 4.246-.609-1.488-2.664zm-.065-8.48l-1.767.478-.146-.453c.478-.187.755-.62.83-1.3.064-.686-.045-1.39-.327-2.112-.284-.73-.606-1.236-.966-1.517-.369-.277-.722-.349-1.061-.217-.574.224-.969.728-1.184 1.513a6.101 6.101 0 0 0-.173.984l-.158 1.444a6.345 6.345 0 0 0-.079.646 7.22 7.22 0 0 1-.081.678 8.72 8.72 0 0 1-.196.693c-.179.57-.481.938-.907 1.104-.435.17-.842.243-1.221.221a2.345 2.345 0 0 1-.98-.28 3.452 3.452 0 0 1-.777-.644 5.583 5.583 0 0 1-.979-1.662 4.228 4.228 0 0 1-.246-2.098l1.574-.433.173.444c-.818.318-.959 1.165-.423 2.539.247.635.534 1.074.859 1.318.322.235.657.285 1.005.149.556-.217.874-1.382.952-3.496.048-1.391.322-2.374.819-2.948a2.33 2.33 0 0 1 .934-.65c.904-.352 1.747-.26 2.527.278.777.528 1.365 1.306 1.765 2.332.4 1.026.478 2.023.233 2.989zm-4.341-15.734l.876 3.533-.38.094-.136-.543c-.067-.272-.16-.432-.277-.48-.127-.045-.285-.044-.475.003l-7.338 1.819a1.382 1.382 0 0 0-.306.104c-.077.039-.135.116-.174.231-.04.106-.038.255.01.445l.202.815c.119.48.36.815.724 1.003.353.182.7.24 1.04.175l.012.401-1.909.329-1.893-7.637 1.841-.6.176.36c-.321.099-.6.317-.833.653-.234.337-.292.741-.176 1.212l.203.816c.049.199.122.339.22.421.088.084.17.126.247.126.077 0 .183-.016.32-.05l7.337-1.819a1.36 1.36 0 0 0 .292-.101c.068-.036.122-.112.16-.228.04-.115.034-.272-.016-.472l-.128-.516.38-.094zm-1.937-13.309l.822 7.459-.39.043-.052-.474c-.03-.269-.1-.439-.21-.511-.113-.082-.28-.111-.503-.086l-7.682.846a.628.628 0 0 0-.44.232c-.107.124-.15.293-.126.507l.052.473-.39.043-.81-7.348 1.909-.323.126.381c-.334.037-.64.206-.916.509-.276.303-.388.696-.335 1.178l.28 2.533c.03.278.106.453.226.524.111.072.264.098.46.076l3.172-.349-.307-2.784a2.768 2.768 0 0 0-.049-.318.338.338 0 0 0-.174-.178c-.09-.056-.215-.075-.373-.058l-.64.071-.046-.418 2.895-.318.046.417-.585.064c-.232.026-.375.093-.428.203-.063.11-.084.267-.061.471l.307 2.783 3.59-.395c.195-.022.343-.08.445-.176.093-.095.124-.281.094-.56l-.292-2.644a1.952 1.952 0 0 0-.615-1.242c-.358-.345-.686-.511-.985-.497l.013-.396 1.972.262z"></path></svg>