<svg xmlns="http://www.w3.org/2000/svg" width="38" height="21" fill="none" viewBox="0 0 38 21"><path fill="currentColor" fill-rule="evenodd" d="M34.167 20.042l-3.792-2.792s.667-1.229 2-3.708a1.966 1.966 0 0 1 3.333 0l1.688 2.625a2.18 2.18 0 0 1 .125 2.083l-.459.98a1.958 1.958 0 0 1-2.895.812zm-30.334 0a1.97 1.97 0 0 1-2.896-.792l-.479-.979a2.18 2.18 0 0 1 .125-2.083l1.688-2.625a1.967 1.967 0 0 1 3.333 0 722.799 722.799 0 0 1 2.021 3.687l-3.792 2.792zM26 5.52c.188-1.417 1.52-2.208 2.646-1.563l3.312 1.875c.959.542 1.313 1.896.75 2.938l-4.333 8.48h-3.75L26 5.52zm-14.02 0l1.395 11.73h-3.75l-4.354-8.5c-.563-1.042-.209-2.397.75-2.938l3.312-1.875c1.104-.625 2.459.166 2.646 1.583zm10.77 11.73h-7.5L13.708 2.916c-.146-1.23.73-2.334 1.834-2.334h6.875c1.104 0 1.958 1.105 1.833 2.334l-1.5 14.333z" clip-rule="evenodd"></path></svg>