<svg xmlns="http://www.w3.org/2000/svg" width="28" height="94" fill="none" viewBox="0 0 28 94"><path fill="currentColor" d="M17.272 93.047c-.635 1.27-2.7 1.27-3.336 0C8.533 83.195 3.607 73.184.747 62.379c-.318-1.589 1.43-3.178 2.86-2.224 3.178 2.224 5.88 4.926 8.263 8.104-.636-22.246-3.655-45.286 1.589-67.214.318-1.59 3.019-1.271 2.86.318-2.86 22.722-.635 45.286-.318 68.008 2.701-2.383 5.402-4.767 7.945-7.15 1.112-1.113 3.496-.477 3.337 1.43-1.271 10.487-4.767 20.338-10.01 29.396zm-1.747-18.91c-.954 1.43-3.655 1.113-3.655-1.112v-.317c-1.907-1.907-3.655-3.814-5.72-5.72 2.542 7.309 5.72 14.141 9.374 20.974 3.178-6.197 5.562-12.553 6.833-19.386-1.748 1.59-3.655 3.178-5.403 4.926-.317.636-.953.795-1.43.636z"></path></svg>