<svg xmlns="http://www.w3.org/2000/svg" width="30" height="30" fill="none" viewBox="0 0 30 30"><path fill="currentColor" d="M15.74 13.042c0 .896-.547 1.411-1.51 1.411h-1.266v-2.822h1.271c.958 0 1.505.51 1.505 1.41zm2.474 3.26c0 .432.375.714.963.714.75 0 1.313-.474 1.313-1.141v-.402l-1.224.078c-.693.047-1.052.302-1.052.75v.001zM30 5.782v18.333a2.5 2.5 0 0 1-2.5 2.5h-25a2.5 2.5 0 0 1-2.5-2.5V5.782a2.501 2.501 0 0 1 2.5-2.5h25a2.501 2.501 0 0 1 2.5 2.5zM6.656 11.937c.438.037.875-.218 1.152-.542.27-.333.448-.78.4-1.234-.385.016-.864.255-1.14.588-.25.287-.463.75-.412 1.188zm3.157 3.88c-.01-.01-1.021-.395-1.031-1.562-.01-.974.796-1.443.833-1.47-.458-.676-1.167-.75-1.412-.765-.635-.037-1.177.359-1.48.359-.307 0-.765-.344-1.265-.333a1.869 1.869 0 0 0-1.588.968c-.682 1.178-.177 2.917.485 3.875.322.474.713.995 1.224.974.484-.02.677-.312 1.26-.312.589 0 .756.312 1.266.307.531-.01.86-.473 1.188-.947.359-.542.51-1.063.52-1.094zm7.052-2.78c0-1.386-.964-2.334-2.34-2.334H11.86v7.105h1.105V15.38h1.526c1.396 0 2.375-.959 2.375-2.344zm4.687 1.234c0-1.026-.823-1.688-2.083-1.688-1.172 0-2.036.672-2.068 1.588h.995c.083-.438.489-.723 1.041-.723.677 0 1.052.312 1.052.896v.39l-1.375.084c-1.282.078-1.974.605-1.974 1.516 0 .922.714 1.531 1.74 1.531.692 0 1.332-.349 1.624-.907h.02v.855h1.022V14.27h.006zm5.323-1.62h-1.119l-1.297 4.198h-.02l-1.297-4.198h-1.161l1.869 5.172-.098.312c-.167.532-.443.74-.932.74a5.212 5.212 0 0 1-.324-.016v.854c.063.02.339.026.422.026 1.078 0 1.584-.412 2.026-1.657l1.931-5.431z"></path></svg>