<svg xmlns="http://www.w3.org/2000/svg" width="30" height="30" fill="none" viewBox="0 0 30 30"><path fill="currentColor" d="M25.151 23.037c0 .354-.239.61-.583.61-.354 0-.583-.272-.583-.61 0-.339.229-.61.583-.61.344 0 .583.271.583.61zm-16.188-.61c-.37 0-.583.271-.583.61 0 .338.214.61.583.61.339 0 .568-.256.568-.61-.006-.339-.23-.61-.568-.61zm6.12-.015c-.28 0-.453.182-.495.453h.995c-.047-.297-.229-.453-.5-.453zm5.615.015c-.354 0-.567.271-.567.61 0 .338.214.61.567.61.354 0 .583-.256.583-.61 0-.339-.23-.61-.583-.61zm5.515 1.36c0 .016.016.026.016.057 0 .016-.015.026-.015.057-.016.016-.016.026-.027.041-.016.016-.026.027-.057.027-.016.015-.026.015-.057.015-.016 0-.026 0-.057-.015-.016 0-.027-.016-.042-.027-.015-.016-.026-.026-.026-.04-.016-.027-.016-.042-.016-.058 0-.026 0-.041.016-.057 0-.027.016-.042.026-.057.016-.016.027-.016.042-.027.026-.016.04-.016.057-.016.026 0 .041 0 .057.016.026.015.041.015.057.027.016.01.01.03.026.057zm-.114.073c.026 0 .026-.016.041-.016.016-.016.016-.026.016-.041 0-.015 0-.027-.016-.042-.015 0-.026-.016-.057-.016H26v.182h.041v-.073h.016l.057.073h.041l-.056-.067zM30 5.886V24.22a2.5 2.5 0 0 1-2.5 2.5h-25a2.5 2.5 0 0 1-2.5-2.5V5.886a2.501 2.501 0 0 1 2.5-2.5h25a2.501 2.501 0 0 1 2.5 2.5zm-26.666 7.27a7.216 7.216 0 0 0 7.213 7.213 7.27 7.27 0 0 0 3.984-1.202c-3.797-3.088-3.77-8.917 0-12.006a7.224 7.224 0 0 0-3.984-1.203c-3.979-.004-7.213 3.229-7.213 7.198zM15 18.824c3.672-2.865 3.656-8.448 0-11.328-3.656 2.88-3.672 8.468 0 11.328zm-7.412 3.974c0-.453-.297-.75-.766-.766-.24 0-.495.073-.666.338-.125-.214-.339-.338-.636-.338a.662.662 0 0 0-.552.28v-.228H4.54v1.912h.427c0-.985-.13-1.573.469-1.573.531 0 .427.531.427 1.573h.412c0-.954-.13-1.573.468-1.573.532 0 .427.52.427 1.573h.427v-1.198h-.01zm2.34-.714h-.412v.229a.753.753 0 0 0-.61-.281c-.536 0-.948.427-.948 1.005 0 .583.412 1.005.948 1.005.271 0 .469-.1.61-.282V24h.411v-1.916zm2.109 1.333c0-.78-1.193-.427-1.193-.792 0-.297.62-.25.964-.057l.171-.338c-.489-.318-1.573-.313-1.573.427 0 .744 1.193.432 1.193.78 0 .33-.703.303-1.078.042l-.182.328c.583.396 1.698.313 1.698-.39zm1.844.484l-.115-.354c-.197.108-.635.228-.635-.214v-.864h.682v-.386h-.682V21.5h-.428v.583h-.396v.38h.396v.87c0 .918.901.75 1.178.568zm.691-.697h1.433c0-.844-.385-1.178-.906-1.178-.553 0-.948.412-.948 1.005 0 1.068 1.177 1.245 1.76.74l-.197-.312c-.407.333-1.021.301-1.142-.255zm3.08-1.12c-.24-.104-.605-.094-.792.229v-.229h-.427v1.912h.427v-1.078c0-.605.495-.526.667-.438l.124-.396zm.551.953c0-.595.605-.787 1.079-.438l.197-.339c-.604-.473-1.703-.213-1.703.781 0 1.032 1.166 1.24 1.703.781l-.197-.338c-.48.338-1.079.136-1.079-.448zm3.474-.953h-.428v.229c-.432-.573-1.557-.25-1.557.724 0 1 1.166 1.286 1.557.723V24h.428v-1.916zm1.755 0c-.125-.063-.573-.15-.791.229v-.229h-.412v1.912h.412v-1.078c0-.573.468-.537.666-.438l.125-.396zm2.099-.776h-.412v1.005c-.427-.567-1.557-.265-1.557.724 0 1.01 1.172 1.28 1.557.723V24h.412v-2.692zm.396-3.911v.24h.042v-.24h.098v-.042h-.24v.042h.1zm.344 6.447c0-.026 0-.057-.015-.084-.016-.016-.027-.04-.042-.057-.015-.016-.04-.026-.057-.041-.026 0-.057-.016-.083-.016-.016 0-.042.016-.073.016a.313.313 0 0 0-.058.041c-.026.015-.04.041-.04.057-.017.027-.017.058-.017.084 0 .016 0 .041.016.073 0 .016.016.041.041.057a.163.163 0 0 0 .058.041.147.147 0 0 0 .073.015c.026 0 .057 0 .083-.015.016-.015.041-.026.057-.04.016-.016.027-.042.042-.058.015-.03.015-.057.015-.073zm.166-6.494h-.073l-.083.182-.083-.182h-.074v.281h.042v-.214l.083.182h.057l.073-.182v.214h.058v-.281zm.23-4.194c0-3.969-3.235-7.202-7.214-7.202a7.26 7.26 0 0 0-3.984 1.202c3.755 3.09 3.813 8.933 0 12.006a7.208 7.208 0 0 0 11.197-6.006z"></path></svg>