<svg xmlns="http://www.w3.org/2000/svg" width="30" height="30" fill="none" viewBox="0 0 30 30"><path fill="currentColor" d="M9.703 15.115c0 .635-.505 1.119-1.146 1.119-.479 0-.833-.271-.833-.781a1.13 1.13 0 0 1 1.13-1.146c.485 0 .85.298.85.808zm-5.51-2.526h-.245c-.078 0-.157.052-.167.14l-.224 1.392.427-.016c.573 0 1.016-.078 1.12-.74.12-.698-.323-.776-.912-.776zm14.791 0h-.234c-.094 0-.157.052-.167.14l-.218 1.392.416-.016c.677 0 1.146-.157 1.146-.938-.006-.552-.5-.578-.944-.578h.001zM30 5.833v18.334a2.502 2.502 0 0 1-2.5 2.5h-25a2.502 2.502 0 0 1-2.501-2.5V5.833a2.501 2.501 0 0 1 2.5-2.5h25A2.501 2.501 0 0 1 30 5.833zM6.682 12.885c0-1.094-.843-1.459-1.807-1.459H2.792a.275.275 0 0 0-.271.245l-.854 5.318c-.016.104.063.208.167.208h.99c.14 0 .27-.151.287-.297l.234-1.386c.052-.375.687-.245.937-.245 1.49 0 2.401-.885 2.401-2.385v.001zm4.386.459h-.99c-.198 0-.208.287-.218.427-.302-.442-.74-.521-1.235-.521-1.276 0-2.25 1.12-2.25 2.354 0 1.015.636 1.677 1.65 1.677.47 0 1.053-.255 1.38-.62-.03.106-.047.214-.052.324 0 .12.053.208.167.208h.896c.141 0 .261-.15.287-.297l.532-3.349c.016-.1-.063-.203-.167-.203zm2.11 5.099l3.317-4.824c.026-.026.026-.052.026-.088 0-.088-.077-.182-.166-.182h-1a.296.296 0 0 0-.235.13l-1.38 2.032-.573-1.953a.315.315 0 0 0-.287-.208h-.974c-.089 0-.167.094-.167.182 0 .063 1.016 2.959 1.105 3.234-.14.198-1.068 1.49-1.068 1.647 0 .093.078.167.167.167h1a.307.307 0 0 0 .235-.135v-.002zm8.296-5.558c0-1.094-.843-1.459-1.807-1.459h-2.068a.288.288 0 0 0-.287.245l-.844 5.313c-.01.104.068.208.167.208h1.068c.104 0 .182-.078.208-.167l.234-1.51c.053-.375.688-.245.938-.245 1.48 0 2.39-.885 2.39-2.385h.001zm4.385.459h-.99c-.198 0-.208.287-.224.427-.287-.442-.73-.521-1.235-.521-1.276 0-2.25 1.12-2.25 2.354 0 1.015.636 1.677 1.651 1.677.485 0 1.068-.255 1.38-.62-.016.078-.052.245-.052.324 0 .12.052.208.167.208h.9c.141 0 .261-.15.287-.297l.532-3.349c.016-.1-.063-.203-.167-.203h.001zm2.474-1.735c0-.104-.078-.182-.167-.182h-.963c-.078 0-.157.063-.167.141l-.844 5.417-.015.026c0 .094.078.182.182.182h.86c.13 0 .26-.15.27-.297l.844-5.27v-.017zm-4.687 2.698c-.636 0-1.131.506-1.131 1.146 0 .505.365.78.844.78a1.11 1.11 0 0 0 1.13-1.118c.006-.51-.359-.808-.843-.808z"></path></svg>