<svg xmlns="http://www.w3.org/2000/svg" width="30" height="30" fill="none" viewBox="0 0 30 30"><path fill="currentColor" d="M24.485 13.714s.395 1.938.484 2.344H23.23l.834-2.266c-.01.016.171-.475.275-.777l.146.699zM30 5.834v18.333a2.501 2.501 0 0 1-2.5 2.5h-25a2.502 2.502 0 0 1-2.5-2.5V5.833a2.501 2.501 0 0 1 2.5-2.5h25a2.501 2.501 0 0 1 2.5 2.5zM7.943 18.916l3.291-8.083H9.021l-2.047 5.52-.224-1.118-.73-3.72c-.12-.515-.489-.661-.947-.682h-3.37l-.036.161c.772.19 1.512.49 2.197.89l1.865 7.032h2.214zm4.917.01l1.312-8.093H12.08l-1.307 8.093h2.088zm7.286-2.645c.01-.922-.552-1.625-1.755-2.203-.734-.37-1.182-.62-1.182-1 .01-.345.38-.7 1.203-.7a3.585 3.585 0 0 1 1.557.308l.187.088.287-1.75a5.206 5.206 0 0 0-1.875-.344c-2.068 0-3.521 1.105-3.531 2.677-.016 1.161 1.041 1.807 1.833 2.197.807.396 1.084.656 1.084 1.005-.01.542-.656.791-1.255.791-.834 0-1.282-.13-1.964-.432l-.276-.13-.291 1.818c.489.224 1.396.422 2.333.432 2.197.005 3.63-1.084 3.646-2.76l-.001.003zm7.354 2.645l-1.688-8.093h-1.62c-.5 0-.88.146-1.094.672l-3.11 7.422h2.198s.359-1 .438-1.213h2.688c.062.287.25 1.213.25 1.213H27.5z"></path></svg>