<svg xmlns="http://www.w3.org/2000/svg" width="80" height="80" fill="none" viewBox="0 0 80 80"><g fill="currentColor"><path d="M75.313 47.073v-34.77A6.261 6.261 0 0 0 80 6.25 6.257 6.257 0 0 0 73.75 0a6.261 6.261 0 0 0-6.052 4.688h-34.77A6.261 6.261 0 0 0 26.874 0a6.257 6.257 0 0 0-6.25 6.25 6.261 6.261 0 0 0 4.688 6.052v34.77a6.261 6.261 0 0 0-4.688 6.053 6.257 6.257 0 0 0 6.25 6.25 6.261 6.261 0 0 0 6.052-4.688H43.28a1.563 1.563 0 0 0 0-3.124H32.927a6.274 6.274 0 0 0-4.49-4.49v-34.77a6.274 6.274 0 0 0 4.49-4.49h34.77a6.274 6.274 0 0 0 4.49 4.49v34.77a6.274 6.274 0 0 0-4.49 4.49H57.345a1.563 1.563 0 0 0 0 3.124h10.354a6.261 6.261 0 0 0 6.052 4.688 6.257 6.257 0 0 0 6.25-6.25 6.261 6.261 0 0 0-4.688-6.052zM30 53.125a3.129 3.129 0 0 1-3.125 3.125 3.129 3.129 0 0 1-3.125-3.125A3.129 3.129 0 0 1 26.875 50 3.129 3.129 0 0 1 30 53.125zm-3.125-43.75A3.129 3.129 0 0 1 23.75 6.25a3.129 3.129 0 0 1 3.125-3.125A3.129 3.129 0 0 1 30 6.25a3.128 3.128 0 0 1-3.125 3.125zm43.75-3.125a3.129 3.129 0 0 1 3.125-3.125 3.129 3.129 0 0 1 3.125 3.125 3.129 3.129 0 0 1-3.125 3.125 3.129 3.129 0 0 1-3.125-3.125zm3.125 50a3.129 3.129 0 0 1-3.125-3.125A3.129 3.129 0 0 1 73.75 50a3.129 3.129 0 0 1 3.125 3.125 3.128 3.128 0 0 1-3.125 3.125z"></path><path d="M50.312 54.688a1.563 1.563 0 1 0 0-3.126 1.563 1.563 0 0 0 0 3.126zm6.25-25c0-.863-.7-1.563-1.562-1.563h-3.125V25a1.563 1.563 0 0 0-3.125 0v3.125h-3.125a1.563 1.563 0 0 0 0 3.125h3.125v3.125a1.563 1.563 0 0 0 3.125 0V31.25H55c.863 0 1.562-.7 1.562-1.563zM14.051 63.739L.458 77.332a1.563 1.563 0 0 0 2.21 2.21L16.26 65.948a1.563 1.563 0 0 0-2.21-2.21zm18.75 0L19.208 77.332a1.563 1.563 0 0 0 2.21 2.21L35.01 65.95a1.563 1.563 0 0 0-2.21-2.21zm-18.75-18.75L.458 58.583a1.563 1.563 0 0 0 2.21 2.21L16.26 47.198a1.563 1.563 0 0 0-2.21-2.21z"></path></g></svg>