<svg xmlns="http://www.w3.org/2000/svg" width="80" height="80" fill="none" viewBox="0 0 80 80"><g fill="currentColor"><path d="M75.813 40.304l-1.87-.917c.013-1.322-.007-2.523 0-3.653a33.946 33.946 0 0 0-4.32-16.577c.66-.953.694-2.225.023-3.228a35.85 35.85 0 0 0-9.267-9.475 35.723 35.723 0 0 0-7.725-4.108 1.172 1.172 0 0 0-.838 2.19 33.367 33.367 0 0 1 7.217 3.837 33.518 33.518 0 0 1 8.665 8.859.53.53 0 0 1-.082.686c-.178.14-4.091 3.823-4.328 3.966a.523.523 0 0 1-.301.049.546.546 0 0 1-.395-.259 26.824 26.824 0 0 0-5.71-6.526 26.713 26.713 0 0 0-16.968-6.102 26.646 26.646 0 0 0-17.634 6.67 26.862 26.862 0 0 0-4.949 5.808.527.527 0 0 1-.815.079l-4.068-4.07a.534.534 0 0 1-.06-.679 33.67 33.67 0 0 1 6.12-6.726 33.402 33.402 0 0 1 27.796-7.171 1.172 1.172 0 0 0 .447-2.3 35.749 35.749 0 0 0-29.748 7.675 36.02 36.02 0 0 0-6.547 7.194 2.877 2.877 0 0 0 .064 3.348 34.424 34.424 0 0 0-2.86 6.268 1.172 1.172 0 0 0 2.219.753 32.028 32.028 0 0 1 2.344-5.272l2.502 2.503a28.868 28.868 0 0 0-3.035 12.872v24.397l-6.472-3.173a2.256 2.256 0 0 1-1.255-2.012V44.42c0-.848.493-1.638 1.255-2.012.396-.211 1.194-.56 1.855-.91a2.192 2.192 0 0 0 1.158-1.935v-3.551c-.009-1.508.095-3.03.309-4.524a1.172 1.172 0 1 0-2.32-.332 33.175 33.175 0 0 0-.333 4.862v3.456c-.293.162-1.267.602-1.743.85a4.616 4.616 0 0 0-2.524 4.097V55.21a4.615 4.615 0 0 0 2.567 4.117l7.817 3.832a6.26 6.26 0 0 0 5.936 4.299 6.257 6.257 0 0 0 6.25-6.25V40.13a6.257 6.257 0 0 0-6.25-6.25 6.219 6.219 0 0 0-3.894 1.367 26.517 26.517 0 0 1 2.81-11.143 2.838 2.838 0 0 0 2.458-1.328 24.517 24.517 0 0 1 4.517-5.3 24.304 24.304 0 0 1 16.084-6.086 24.364 24.364 0 0 1 15.475 5.566 24.484 24.484 0 0 1 5.212 5.957 2.89 2.89 0 0 0 2.458 1.37c.056 0 .112-.005.168-.009a26.53 26.53 0 0 1 2.726 10.973 6.217 6.217 0 0 0-3.894-1.367 6.257 6.257 0 0 0-6.25 6.25v3.515a1.172 1.172 0 0 0 2.344 0V40.13a3.91 3.91 0 0 1 3.906-3.906 3.91 3.91 0 0 1 3.906 3.906v21.08a3.91 3.91 0 0 1-3.906 3.905 3.91 3.91 0 0 1-3.906-3.906V49.553a1.172 1.172 0 0 0-2.343 0v11.655a6.257 6.257 0 0 0 6.25 6.25 6.218 6.218 0 0 0 3.905-1.376v2.791c0 .843-.686 1.53-1.529 1.53h-14.04a2.738 2.738 0 0 0-2.59-1.863h-8.861a2.738 2.738 0 0 0-2.734 2.734v5.992A2.738 2.738 0 0 0 38.946 80h8.86a2.737 2.737 0 0 0 2.586-1.852H58a1.172 1.172 0 0 0 0-2.343h-7.459v-3.059h13.896a3.877 3.877 0 0 0 3.873-3.873v-5.868l3.058-1.499v10.406a3.897 3.897 0 0 1-3.892 3.893h-3.63a1.172 1.172 0 0 0 0 2.343h3.63a6.243 6.243 0 0 0 6.236-6.236V60.357l2.101-1.03a4.615 4.615 0 0 0 2.567-4.117V44.42a4.615 4.615 0 0 0-2.567-4.116zm-57.874-4.08a3.91 3.91 0 0 1 3.906 3.906v21.078a3.91 3.91 0 0 1-3.905 3.906 3.91 3.91 0 0 1-3.906-3.906V40.13a3.91 3.91 0 0 1 3.905-3.905zm20.616 41.042v-5.992a.39.39 0 0 1 .39-.39h3.26v6.772h-3.26a.391.391 0 0 1-.39-.39zm9.642 0a.39.39 0 0 1-.39.39h-3.259v-6.772h3.259a.39.39 0 0 1 .39.39v5.992zm27.84-22.056c0 .849-.493 1.639-1.256 2.013l-6.471 3.172V35.998c0-4.428-1.03-8.824-2.987-12.775l2.56-2.363A31.61 31.61 0 0 1 71.6 35.712c-.009.974.015 2.279-.002 3.852a2.037 2.037 0 0 0 1.134 1.839l2.05 1.005a2.256 2.256 0 0 1 1.255 2.013V55.21z"></path><path d="M50.54 36.182c-.085-1.014-.676-1.836-1.507-2.093-.391-.121-1.405-.276-2.366.903-.893 1.096-5.382 9.205-6.273 10.82a1.172 1.172 0 0 0 1.026 1.738h6.767l-.027 3.508a1.172 1.172 0 0 0 1.161 1.181h.01c.643 0 1.167-.518 1.172-1.161l.028-3.529h.868a1.172 1.172 0 0 0 0-2.343h-.852c.024-3.934.04-8.45-.008-9.024zm-2.337 9.024H43.41c1.76-3.16 3.962-7.043 4.808-8.35.018 1.286.006 4.766-.015 8.35zm-9.701 5.966a1.17 1.17 0 0 0-1.186-1.157 387.87 387.87 0 0 1-5.99.035 186.65 186.65 0 0 0 4.523-6.225c1.064-1.579 1.874-3.071 1.98-4.737a5.244 5.244 0 0 0-5.238-5.237 5.246 5.246 0 0 0-5.14 4.224 1.172 1.172 0 0 0 2.3.451 2.898 2.898 0 0 1 2.84-2.332 2.898 2.898 0 0 1 2.893 2.826c-.09 1.056-.668 2.133-1.556 3.46-2.524 3.607-4.03 5.58-4.84 6.64-.963 1.262-1.254 1.642-1.042 2.331.12.39.418.69.816.823.816.218 5.843.096 8.483.084a1.172 1.172 0 0 0 1.157-1.186z"></path></g></svg>