<svg xmlns="http://www.w3.org/2000/svg" width="80" height="80" fill="none" viewBox="0 0 80 80"><path fill="currentColor" d="M64.854 27.185H52.427c-.854 0-1.553.699-1.553 1.553s.699 1.553 1.553 1.553h12.427a4.674 4.674 0 0 1 4.66 4.66v37.282a4.674 4.674 0 0 1-4.66 4.66H15.146a4.674 4.674 0 0 1-4.66-4.66V34.952a4.674 4.674 0 0 1 4.66-4.66h13.98c.855 0 1.554-.7 1.554-1.554 0-.854-.7-1.553-1.554-1.553h-13.98c-4.272 0-7.767 3.495-7.767 7.767v37.281c0 4.272 3.495 7.767 7.767 7.767h49.708c4.272 0 7.767-3.495 7.767-7.767V34.952c0-4.272-3.495-7.767-7.767-7.767zM40 5.437c.854 0 1.553-.7 1.553-1.554v-2.33C41.553.7 40.854 0 40 0s-1.553.699-1.553 1.553v2.33c0 .855.699 1.554 1.553 1.554z"></path><path fill="currentColor" d="M25.165 41.087c-.621.622-.621 1.554 0 2.175L38.913 57.01c.31.31.699.466 1.087.466s.777-.156 1.087-.466l13.748-13.748c.621-.621.621-1.553 0-2.175-.621-.621-1.553-.621-2.175 0L41.554 52.194v-41.32c0-.855-.7-1.554-1.554-1.554-.854 0-1.553.7-1.553 1.554v41.32L27.34 41.087c-.622-.621-1.553-.621-2.175 0z"></path></svg>