<svg xmlns="http://www.w3.org/2000/svg" width="80" height="80" fill="none" viewBox="0 0 80 80"><path fill="currentColor" d="M10 62.5H6.25a1.25 1.25 0 0 0 0 2.5H10a1.25 1.25 0 0 0 0-2.5zm5 0h-1.25a1.25 1.25 0 0 0 0 2.5H15a1.25 1.25 0 0 0 0-2.5z"></path><path fill="currentColor" d="M73.75 26.25h-2.5v-10a5.006 5.006 0 0 0-5-5h-52.5a5.006 5.006 0 0 0-5 5v22.5h-2.5a5.006 5.006 0 0 0-5 5v20a5.006 5.006 0 0 0 5 5h12.5a5.006 5.006 0 0 0 5-5V60h10.898l-.625 2.5H30a1.25 1.25 0 0 0-1.25 1.25v3.75A1.25 1.25 0 0 0 30 68.75h43.75a5.006 5.006 0 0 0 5-5v-32.5a5.006 5.006 0 0 0-5-5zm-52.5 37.5a2.503 2.503 0 0 1-2.5 2.5H6.25a2.503 2.503 0 0 1-2.5-2.5v-20a2.503 2.503 0 0 1 2.5-2.5h1.598l.966 2.895A1.25 1.25 0 0 0 10 45h5a1.25 1.25 0 0 0 1.186-.855l.966-2.895h1.598a2.503 2.503 0 0 1 2.5 2.5v20zm-10.766-22.5h4.032l-.418 1.25h-3.196l-.418-1.25zM23.75 57.5v-3.75h22.5v3.75h-22.5zm22.5 2.5v2.5h-.273l-.625-2.5h.898zm-2.852 2.5h-6.796l.625-2.5h5.546l.625 2.5zM31.25 66.25V65h15.158c.114.438.288.859.515 1.25H31.25zm15-35v20h-22.5v-7.5a5.006 5.006 0 0 0-5-5h-7.5v-22.5a2.503 2.503 0 0 1 2.5-2.5h52.5a2.503 2.503 0 0 1 2.5 2.5v10h-17.5a5.006 5.006 0 0 0-5 5zm30 32.5a2.503 2.503 0 0 1-2.5 2.5h-22.5a2.503 2.503 0 0 1-2.5-2.5v-32.5a2.503 2.503 0 0 1 2.5-2.5h22.5a2.503 2.503 0 0 1 2.5 2.5v32.5z"></path><path fill="currentColor" d="M73.75 30h-22.5A1.25 1.25 0 0 0 50 31.25V60a1.25 1.25 0 0 0 1.25 1.25h22.5A1.25 1.25 0 0 0 75 60V31.25A1.25 1.25 0 0 0 73.75 30zM72.5 58.75h-20V32.5h20v26.25zM61.25 65a1.25 1.25 0 1 0 0-2.5 1.25 1.25 0 0 0 0 2.5z"></path></svg>