<svg xmlns="http://www.w3.org/2000/svg" width="80" height="80" fill="none" viewBox="0 0 80 80"><path fill="currentColor" d="M78.882 11.345L68.654 1.117a3.825 3.825 0 0 0-5.403 0L43.994 20.374a1.235 1.235 0 0 0 1.746 1.746L64.996 2.863c.256-.255.595-.395.956-.395s.7.14.956.395l10.228 10.228c.255.255.395.595.395.956 0 .36-.14.7-.395.955l-2.51 2.51-6.577-6.576a1.235 1.235 0 0 0-1.746 1.746l6.576 6.577-2.867 2.867-2.89-2.89a1.235 1.235 0 0 0-1.747 1.746l2.89 2.89-2.867 2.868-2.89-2.89a1.235 1.235 0 0 0-1.747 1.746l2.89 2.89-2.867 2.868-6.576-6.577a1.235 1.235 0 0 0-1.746 1.746l6.576 6.577-2.868 2.867-2.89-2.89a1.235 1.235 0 0 0-1.746 1.746l2.89 2.89-2.426 2.426L39.86 28l2.258-2.258a1.235 1.235 0 0 0-1.746-1.746l-2.258 2.258L15.337 3.48a8.332 8.332 0 0 0-5.93-2.457 8.33 8.33 0 0 0-5.93 2.457A8.331 8.331 0 0 0 1.02 9.41c0 2.24.872 4.346 2.456 5.93l22.776 22.776L1.118 63.25a3.825 3.825 0 0 0 0 5.404l10.228 10.228A3.796 3.796 0 0 0 14.048 80c1.02 0 1.98-.397 2.701-1.119l25.134-25.134 1.79 1.79a1.235 1.235 0 0 0 1.747-1.746l-2.471-2.471a1.232 1.232 0 0 0-.385-.385L15.811 24.182l3.31-3.311 2.048 2.047a1.231 1.231 0 0 0 1.746 0 1.235 1.235 0 0 0 0-1.746l-2.047-2.047 3.311-3.312 13.06 13.06.001.001.002.002 13.763 13.763c.034.045.07.089.11.13.042.04.086.077.13.111L69.57 61.203l-3.311 3.311L47.77 46.028l-.033-.037-7.372-7.372-.038-.035-13.022-13.022a1.235 1.235 0 0 0-1.746 1.747L64.51 66.26l-3.31 3.311-11.735-11.733a1.235 1.235 0 0 0-1.746 1.746L60.327 72.19c.12.12.268.216.426.278l14.919 5.791a2.002 2.002 0 0 0 2.591-2.593l-5.798-14.912a1.248 1.248 0 0 0-.277-.425L53.744 41.886l25.138-25.138a3.825 3.825 0 0 0 0-5.403zM40.138 52l-2.423 2.422-2.89-2.89a1.235 1.235 0 0 0-1.747 1.746l2.89 2.89-2.867 2.868-6.576-6.576a1.235 1.235 0 0 0-1.746 1.746l6.576 6.576-2.868 2.868-2.89-2.89a1.235 1.235 0 0 0-1.746 1.746l2.89 2.89-2.867 2.868-2.89-2.89a1.235 1.235 0 0 0-1.747 1.746l2.89 2.89-2.867 2.868-6.577-6.577a1.235 1.235 0 0 0-1.746 1.746l6.577 6.577-2.51 2.51a1.343 1.343 0 0 1-.956.396c-.36 0-.7-.141-.956-.396L2.865 66.907a1.353 1.353 0 0 1 0-1.911l25.134-25.134L40.138 52zM5.222 13.594a5.924 5.924 0 0 1 0-8.369 5.924 5.924 0 0 1 8.369 0l3.902 3.903-8.368 8.368-3.903-3.902zM18.25 18.25l-.001.001v.001l-4.184 4.184-3.194-3.194 8.368-8.369 3.194 3.194-4.183 4.183zm57.329 57.325l-12.167-4.723 7.438-7.438 4.729 12.161z"></path></svg>