<svg xmlns="http://www.w3.org/2000/svg" width="80" height="80" fill="none" viewBox="0 0 80 80"><path fill="currentColor" d="M23.498 63.241a28.355 28.355 0 0 1-12.043-23.167c0-15.053 11.929-27.488 26.826-28.258v2.509c0 1.604 1.804 2.565 3.136 1.654l9.004-6.159a2.005 2.005 0 0 0 0-3.309L41.418.351A1.993 1.993 0 0 0 40.288 0c-1.107 0-2.007.9-2.007 2.006v2.553a35.434 35.434 0 0 0-17.51 5.458A1.174 1.174 0 0 0 22.024 12 33.088 33.088 0 0 1 38.28 6.907v2.557c-16.257.765-29.172 14.17-29.172 30.61a30.704 30.704 0 0 0 13.04 25.087c1.405.987-.13 3.029-1.45 2.102C2.93 54.784 1.646 28.773 18.373 14.676a1.173 1.173 0 1 0-1.513-1.794C-1.058 27.984.34 55.834 19.35 69.182c1.263.889 3.004.889 4.323-.156 1.901-1.496 1.804-4.394-.174-5.785zm17.13-60.586l8.055 5.51-8.055 5.51V2.656zm20.202 8.161c-2.418-1.697-5.77.14-5.692 3.074a3.597 3.597 0 0 0 1.543 2.868 28.354 28.354 0 0 1 12.043 23.168c0 15.053-11.929 27.487-26.827 28.257v-2.509c0-1.604-1.804-2.564-3.136-1.654l-9.003 6.16a2.005 2.005 0 0 0-.001 3.308c9.836 6.729 9.29 6.51 10.134 6.51a2.008 2.008 0 0 0 2.007-2.005V75.44c18.95-.77 34.072-16.352 34.072-35.513 0-11.57-5.66-22.452-15.14-29.11zM39.55 77.345l-8.055-5.51 8.056-5.51v11.02zm2.35-4.252v-2.557c16.255-.764 29.17-14.17 29.17-30.61A30.704 30.704 0 0 0 58.03 14.84a1.269 1.269 0 0 1-.546-1.013c-.028-1.021 1.169-1.672 1.997-1.09a33.264 33.264 0 0 1 14.143 27.19c-.001 17.753-14.126 32.39-31.725 33.166z"></path><path fill="currentColor" d="M34.5 41.805l-3.132-4.176c-2.717-3.624-8.465-2.122-9.102 2.332a5.052 5.052 0 0 0 .966 3.77l5.735 7.645a6.044 6.044 0 0 0 8.687 1.025l18.47-15.317a5.082 5.082 0 0 0 .67-7.16 5.092 5.092 0 0 0-7.16-.668L34.5 41.805zm20.487-10.383a2.737 2.737 0 0 1-.36 3.856L36.156 50.595a3.698 3.698 0 0 1-5.312-.627l-5.734-7.645a2.72 2.72 0 0 1-.52-2.03c.345-2.417 3.443-3.198 4.9-1.256l3.872 5.162c.4.533 1.169.63 1.688.2l16.081-13.336a2.741 2.741 0 0 1 3.856.36z"></path></svg>