<svg xmlns="http://www.w3.org/2000/svg" width="40" height="41" fill="none" viewBox="0 0 40 41"><path fill="currentColor" d="M36.85 17.731c-.383-.354-.965-.888-1.036-1.152-.08-.299.148-1.049.316-1.597.345-1.133.737-2.419.082-3.546-.663-1.14-1.983-1.44-3.147-1.703-.551-.125-1.306-.296-1.513-.503-.208-.207-.378-.963-.504-1.514-.264-1.165-.562-2.485-1.704-3.147a2.743 2.743 0 0 0-1.393-.351c-.727 0-1.452.22-2.152.434-.532.162-1.082.33-1.447.33a.582.582 0 0 1-.149-.015c-.266-.072-.8-.652-1.153-1.036-.818-.889-1.745-1.895-3.088-1.9h-.007c-1.34 0-2.268 1-3.087 1.884-.353.381-.887.957-1.148 1.026a.603.603 0 0 1-.143.014c-.364 0-.915-.172-1.448-.338-.705-.22-1.433-.446-2.163-.446a2.72 2.72 0 0 0-1.377.345c-1.144.659-1.443 1.98-1.706 3.145-.124.549-.294 1.302-.5 1.507-.203.203-.955.373-1.504.497-1.165.264-2.486.563-3.145 1.706-.652 1.129-.252 2.41.1 3.542.17.546.404 1.292.326 1.588-.069.26-.645.795-1.025 1.147-.841.78-1.888 1.75-1.884 3.096.003 1.343 1.01 2.27 1.899 3.087.384.354.964.888 1.036 1.153.08.298-.149 1.048-.316 1.595-.345 1.135-.738 2.421-.082 3.55.662 1.14 1.982 1.438 3.146 1.702.551.125 1.307.296 1.513.503.209.208.38.963.504 1.514.264 1.165.563 2.486 1.704 3.147.401.234.871.352 1.394.352.726 0 1.452-.221 2.153-.435.532-.163 1.083-.33 1.448-.33.082 0 .129.01.149.015.263.07.798.652 1.152 1.036.817.889 1.743 1.896 3.088 1.898 1.347 0 2.276-1.001 3.094-1.883.353-.381.887-.957 1.149-1.027a.578.578 0 0 1 .14-.014c.363 0 .915.172 1.448.339.705.22 1.434.448 2.165.448.515 0 .977-.116 1.375-.346 1.144-.66 1.443-1.981 1.706-3.145.124-.55.294-1.302.5-1.507.204-.203.956-.375 1.506-.498 1.164-.264 2.485-.562 3.143-1.706.651-1.129.252-2.41-.1-3.54-.17-.546-.403-1.293-.325-1.591.07-.26.645-.794 1.026-1.147.841-.78 1.888-1.75 1.885-3.094-.005-1.344-1.012-2.27-1.9-3.089zm-2.219 7.01c-.37 1.394 1.253 3.608.55 4.827-.713 1.238-3.447.943-4.451 1.946-1.003 1.002-.708 3.737-1.945 4.452a1.486 1.486 0 0 1-.75.178c-1.086 0-2.512-.786-3.614-.786-.161 0-.315.016-.46.055-1.345.356-2.46 2.868-3.917 2.868h-.004c-1.462-.003-2.567-2.527-3.917-2.892a1.828 1.828 0 0 0-.474-.057c-1.1-.001-2.517.765-3.601.765-.283 0-.542-.052-.768-.183-1.239-.72-.943-3.456-1.95-4.464-1.006-1.007-3.744-.712-4.463-1.95-.71-1.223.9-3.447.524-4.842-.363-1.349-2.888-2.456-2.891-3.917-.005-1.461 2.512-2.574 2.867-3.92.369-1.392-1.254-3.607-.55-4.826.712-1.237 3.447-.942 4.45-1.944 1.003-1.004.708-3.74 1.945-4.452.222-.128.477-.178.754-.178 1.085 0 2.508.783 3.61.783.162 0 .317-.016.463-.055 1.344-.354 2.458-2.868 3.916-2.868h.003c1.463.005 2.568 2.528 3.918 2.892.15.04.31.058.476.058 1.099 0 2.515-.764 3.599-.764.282 0 .541.052.767.182 1.24.72.943 3.457 1.95 4.465 1.008 1.006 3.744.71 4.464 1.95.71 1.221-.9 3.447-.523 4.84.364 1.35 2.888 2.457 2.892 3.92.003 1.458-2.514 2.573-2.87 3.917z"></path><path fill="currentColor" d="M27.574 28.073a11.615 11.615 0 0 1-4.82 1.914c-1.693.25-3.424.127-5.034-.375-1.613-.492-3.086-1.355-4.35-2.465-1.258-1.106-2.317-2.483-2.972-4.11-.656-1.615-.895-3.468-.556-5.252.326-1.787 1.223-3.468 2.498-4.766 1.266-1.292 2.951-2.117 4.688-2.273a7.883 7.883 0 0 1 4.863 1.094c.69.417 1.317.931 1.86 1.527a5.773 5.773 0 0 1 1.169 1.972 5.62 5.62 0 0 1-.294 4.336 5.72 5.72 0 0 1-1.347 1.707c-.48.398-1.11.73-1.76.859-1.312.308-2.764-.086-3.775-1.045-.93-.838-1.257-2.378-.67-3.636a3.37 3.37 0 0 1 .593-.883c.217-.24.48-.436.774-.572a2.793 2.793 0 0 1 2.077-.091c.357.13.686.326.969.58.269.239.492.57.62.94.27.74.162 1.675-.385 2.41l.222.221c.817-.604 1.317-1.716 1.182-2.843a3.44 3.44 0 0 0-.617-1.602 4.158 4.158 0 0 0-1.275-1.154 4.432 4.432 0 0 0-3.477-.437 4.595 4.595 0 0 0-1.67.87c-.463.38-.86.834-1.177 1.343a5.747 5.747 0 0 0-.857 3.533A5.938 5.938 0 0 0 15.53 23.3c.797.912 1.86 1.598 3.022 1.99a7.16 7.16 0 0 0 3.643.232c1.214-.254 2.35-.785 3.307-1.638a8.267 8.267 0 0 0 2.059-2.83 8.524 8.524 0 0 0 .078-6.774c-.887-2.15-2.675-3.748-4.652-4.609-1.993-.881-4.233-1.01-6.247-.5a10.108 10.108 0 0 0-5.13 3.167 13.014 13.014 0 0 0-2.816 5.202c-.532 1.924-.65 4.003-.222 6.04.425 2.027 1.423 4.004 2.925 5.524 2.987 3.081 7.675 4.263 11.74 3.212a11.765 11.765 0 0 0 5.369-3 11.983 11.983 0 0 0 3.083-5.042l-.28-.14c-1.09 1.568-2.36 2.93-3.835 3.94z"></path></svg>