<svg xmlns="http://www.w3.org/2000/svg" width="40" height="41" fill="none" viewBox="0 0 40 41"><path fill="currentColor" d="M33.75 14.531c0-.172-.009-.342-.026-.51-.27-7-6.034-12.615-13.099-12.615h-1.25c-7.065 0-12.828 5.615-13.1 12.615a5.107 5.107 0 0 0-.025.51c0 .065.01.128.03.19l4.345 13.658v6.152c0 .225.12.431.315.543l8.75 5a.624.624 0 0 0 .62 0l8.75-5a.624.624 0 0 0 .315-.543V28.38l4.346-13.658a.627.627 0 0 0 .029-.19zm-5.361 12.824l-5.616-3.209 2.21-9.473a.628.628 0 0 0 .017-.142 3.754 3.754 0 0 1 3.75-3.75c2.04 0 3.7 1.638 3.746 3.666l-4.107 12.908zm-4.639 4.503l1.25-.714v1.751l-1.25.625v-1.662zm-2.816.17l1.543-6.612 5.013 2.865-6.556 3.747zm-9.323-4.673L7.504 14.447a3.752 3.752 0 0 1 3.746-3.666 3.754 3.754 0 0 1 3.75 3.75c0 .048.006.096.016.142l2.21 9.473-5.615 3.209zm7.045-2.586L20 24.001l1.344.768L20 30.531l-1.344-5.762zm1.969-1.85V10.837a3.753 3.753 0 0 1 3.124 3.625l-2.108 9.037-1.016-.58zm-1.25 0l-1.016.58-2.108-9.036a3.753 3.753 0 0 1 3.124-3.625v12.08zm-1.852 2.497l1.543 6.612-6.556-3.747 5.013-2.865zm1.852-22.76h1.25c5.164 0 9.559 3.32 11.19 7.933A4.972 4.972 0 0 0 28.75 9.53a5.004 5.004 0 0 0-4.375 2.582A5.004 5.004 0 0 0 20 9.53a5.003 5.003 0 0 0-4.375 2.585A5.003 5.003 0 0 0 11.25 9.53a4.972 4.972 0 0 0-3.064 1.058c1.63-4.613 6.025-7.933 11.189-7.933zm-7.5 26.702l7.5 4.286v4.81l-7.5-4.285v-4.81zm8.75 9.096v-4.81l1.875-1.072v1.96a.627.627 0 0 0 .904.559l2.5-1.25a.626.626 0 0 0 .346-.56V30.43l1.875-1.07v4.81l-7.5 4.285z"></path></svg>