<svg xmlns="http://www.w3.org/2000/svg" width="40" height="41" fill="none" viewBox="0 0 40 41"><g fill="currentColor"><path d="M14.271 10.508a4.54 4.54 0 0 0-4.534 4.534 4.54 4.54 0 0 0 4.534 4.534 4.54 4.54 0 0 0 4.535-4.534 4.54 4.54 0 0 0-4.535-4.534zm0 7.896a3.366 3.366 0 0 1-3.362-3.362 3.366 3.366 0 0 1 3.362-3.362 3.366 3.366 0 0 1 3.363 3.362 3.366 3.366 0 0 1-3.363 3.362z"></path><path d="M14.272 12.706a2.339 2.339 0 0 0-2.337 2.336 2.339 2.339 0 0 0 2.337 2.336 2.339 2.339 0 0 0 2.336-2.336 2.339 2.339 0 0 0-2.336-2.336zm0 3.5a1.166 1.166 0 0 1-1.165-1.164 1.166 1.166 0 0 1 2.329 0c0 .642-.522 1.164-1.164 1.164zm10.789 14.797a4.54 4.54 0 0 0 5.223-4.482 4.54 4.54 0 0 0-4.534-4.535 4.54 4.54 0 0 0-4.534 4.534c0 1.106.404 2.172 1.137 3.001a.586.586 0 1 0 .878-.776 3.355 3.355 0 0 1-.843-2.225 3.366 3.366 0 0 1 3.362-3.362 3.366 3.366 0 0 1 3.362 3.362 3.366 3.366 0 0 1-3.874 3.324.586.586 0 0 0-.177 1.159z"></path><path d="M28.086 26.52a2.339 2.339 0 0 0-2.336-2.336 2.339 2.339 0 0 0-2.336 2.336 2.339 2.339 0 0 0 2.336 2.337 2.339 2.339 0 0 0 2.336-2.337zm-3.5 0a1.165 1.165 0 0 1 2.329 0 1.166 1.166 0 0 1-2.329 0zm1.251-13.948l-8.622 8.622a.586.586 0 1 0 .829.829l8.622-8.622a.513.513 0 0 1 .725.726L13.356 28.162a.514.514 0 0 1-.726-.726l3.506-3.505a.586.586 0 1 0-.829-.829l-3.505 3.506a1.687 1.687 0 0 0 0 2.382c.328.329.76.493 1.191.493a1.68 1.68 0 0 0 1.192-.493L28.22 14.955a1.687 1.687 0 0 0 0-2.383 1.687 1.687 0 0 0-2.383 0z"></path><path d="M9.326 6.724a17.818 17.818 0 0 0-5.074 6.086 17.47 17.47 0 0 0-1.898 7.971 17.54 17.54 0 0 0 5.172 12.485 17.54 17.54 0 0 0 12.485 5.172c4.716 0 9.15-1.837 12.485-5.172a17.54 17.54 0 0 0 5.171-12.485 17.54 17.54 0 0 0-5.171-12.485A17.54 17.54 0 0 0 20.01 3.125c-2.9 0-5.777.719-8.318 2.078a.586.586 0 1 0 .553 1.034 16.512 16.512 0 0 1 7.765-1.94c9.09 0 16.484 7.395 16.484 16.484 0 9.09-7.395 16.485-16.484 16.485-9.09 0-16.485-7.395-16.485-16.485 0-5.192 2.373-9.976 6.51-13.125a.586.586 0 1 0-.71-.932z"></path><path d="M39.43 21.102a.586.586 0 0 0-.613.558c-.462 10.065-8.723 17.95-18.808 17.95-10.382 0-18.828-8.447-18.828-18.829C1.181 10.4 9.627 1.953 20.01 1.953c9.777 0 17.836 7.33 18.745 17.05a.586.586 0 0 0 1.167-.109 19.941 19.941 0 0 0-6.409-12.867A19.946 19.946 0 0 0 20.01.781 19.87 19.87 0 0 0 5.867 6.64 19.87 19.87 0 0 0 .01 20.781a19.87 19.87 0 0 0 5.858 14.142 19.87 19.87 0 0 0 14.142 5.858c5.18 0 10.092-1.972 13.832-5.554a19.9 19.9 0 0 0 6.147-13.513.586.586 0 0 0-.559-.612z"></path></g></svg>