<svg xmlns="http://www.w3.org/2000/svg" width="70" height="70" fill="none" viewBox="0 0 70 70"><g fill="currentColor"><path d="M17.037 40.097c0-.52.031-1.034.078-1.54C9.883 36.45 4.533 31.683 4.533 26.14c0-1.073.031-2.931.086-3.102 1.648 4.082 7.822 7.332 15.03 8.491l3.632-5.8a14.289 14.289 0 0 1 2.9-3.337 16.144 16.144 0 0 1 3.733-2.348c1.657-.755 3.46-1.276 5.405-1.563a1.695 1.695 0 0 1-.327-.995c0-.934.778-1.711 1.71-1.711.934 0 1.712.777 1.712 1.71 0 .265-.063.521-.172.747.242-.008.475-.008.716-.008 3.795 0 7.776.801 11.656 2.318-.054-9.48-11.368-17.186-25.303-17.186-13.966 0-25.303 7.76-25.303 17.271L0 28.192c0 7.667 7.38 14.152 17.558 16.376a19.41 19.41 0 0 1-.52-4.47zM33.631 8.394c.933 0 1.71.778 1.71 1.711s-.777 1.71-1.71 1.71c-.933 0-1.71-.777-1.71-1.71 0-.933.77-1.71 1.71-1.71zm-6.687 5.832c.933 0 1.71.778 1.71 1.711s-.777 1.71-1.71 1.71c-.933 0-1.71-.777-1.71-1.71 0-.933.777-1.71 1.71-1.71zm-6.345-3.942c.933 0 1.71.777 1.71 1.71 0 .934-.777 1.711-1.71 1.711a1.726 1.726 0 0 1-1.711-1.71c0-.933.777-1.711 1.71-1.711zm-3.943 7.885c.933 0 1.71.777 1.71 1.71 0 .934-.777 1.711-1.71 1.711-.933 0-1.71-.777-1.71-1.71 0-.934.777-1.711 1.71-1.711zm-4.798-4.635c.933 0 1.711.778 1.711 1.711s-.778 1.71-1.71 1.71a1.725 1.725 0 0 1-1.711-1.71c0-.925.777-1.71 1.71-1.71z"></path><path d="M55.87 25.774a36.63 36.63 0 0 0-5.24-2.73c-3.974-1.672-7.978-2.496-11.657-2.496-5.948 0-11.034 2.162-13.708 6.415l-3.056 4.876-.965 1.54c-1.088 1.742-1.687 3.686-1.835 5.746-.14 1.898.109 3.888.7 5.894 1.742 5.926 6.5 12.022 13.421 16.369 5.607 3.515 11.626 5.256 16.944 5.256 5.91 0 10.949-2.146 13.608-6.384.04-.062 3.896-6.213 4.036-6.43 5.054-8.064-.42-20.638-12.247-28.056zm-.131 18.273c0 .934-.778 1.711-1.711 1.711s-1.71-.778-1.71-1.71c0-.934.777-1.711 1.71-1.711.933 0 1.71.777 1.71 1.71zm-2.232-12.511c.933 0 1.71.777 1.71 1.71 0 .934-.777 1.711-1.71 1.711-.933 0-1.71-.777-1.71-1.71 0-.934.777-1.711 1.71-1.711zm-7.364 8.227c0 .933-.778 1.71-1.71 1.71a1.74 1.74 0 0 1-1.517-.917 1.74 1.74 0 0 1-.202-.793c0-.933.777-1.711 1.71-1.711.444 0 .848.171 1.151.459.35.31.568.754.568 1.252zm2.395-7.03c0 .933-.778 1.711-1.71 1.711a1.727 1.727 0 0 1-1.712-1.71c0-.934.778-1.712 1.711-1.712s1.71.778 1.71 1.711zm-8.227-6.166c.708 0 1.33.45 1.586 1.073.086.202.132.412.132.645 0 .933-.777 1.711-1.71 1.711a1.714 1.714 0 0 1-1.408-.754 1.653 1.653 0 0 1-.303-.964 1.714 1.714 0 0 1 1.703-1.711zm21.05 29.556c-3.982 6.353-15.498 6.307-24.814.46-4.704-2.956-8.328-7.054-10.24-11.206-.88-1.913-1.4-3.834-1.501-5.669-.11-2.06.31-4.004 1.353-5.669.396-.63 1.01-1.578 1.392-2.138.163-.24.287-.412.334-.443a7.04 7.04 0 0 0-.062.428c-.25 2.208.544 4.82 2.1 7.465.995 1.703 2.309 3.413 3.856 5.054a35.796 35.796 0 0 0 6.882 5.622c7.986 5.008 17.923 6.734 22.395 3.5 0-.009-1.12 1.687-1.695 2.596zm1.407-14.992c0 .934-.778 1.711-1.71 1.711a1.725 1.725 0 0 1-1.711-1.71c0-.934.777-1.711 1.71-1.711.933 0 1.711.777 1.711 1.71z"></path></g></svg>