<svg xmlns="http://www.w3.org/2000/svg" width="70" height="70" fill="none" viewBox="0 0 70 70"><path fill="currentColor" d="M57.504 26.92l-1.328 2.656a6.562 6.562 0 0 0-4.77 2.894 6.562 6.562 0 0 0-10.937 0 6.6 6.6 0 0 0-1.779-1.791l3.482-1.024a29.288 29.288 0 0 0 16.527-12.566 14.692 14.692 0 0 1-1.195 9.832zM47.14 66.72h-6.634l1.056-30.588h-.007c0-.013.008-.024.008-.037a4.375 4.375 0 1 1 8.75-.03L47.14 66.718zM19.688 36.063a4.375 4.375 0 0 1 8.75.03c0 .014.006.025.007.038h-.008l1.056 30.588h-6.634l-3.172-30.656zm10.937.03a4.375 4.375 0 1 1 8.75 0L38.318 66.72h-6.636l-1.057-30.625zm-9.844-30.04a2.775 2.775 0 0 1 4.734-1.96l1.055 1.055a1.094 1.094 0 0 0 1.547 0l1.055-1.055a2.774 2.774 0 0 1 4.734 1.96 4.766 4.766 0 0 1-1.663 3.621l-4.9 4.198-4.898-4.199a4.76 4.76 0 0 1-1.664-3.62zm2.735 7.419l3.116 2.67a1.094 1.094 0 0 0 1.422 0l5.61-4.812c.109-.093.207-.197.31-.296l2.325-.317a8.65 8.65 0 0 0 7.123-6.171 14.608 14.608 0 0 1 3.576 8.841 11.084 11.084 0 0 1-6.578 3.14l-18.721 2.078c-.607.071-1.209.188-1.798.35a8.946 8.946 0 0 1 3.615-5.483zm-1.58 7.31l18.72-2.079A13.302 13.302 0 0 0 52.313 7.714l1.71 1.496a14.748 14.748 0 0 1 3.755 5.095 27.082 27.082 0 0 1-16.223 13.258L34.8 29.55a6.556 6.556 0 0 0-5.27 2.92 6.562 6.562 0 0 0-10.937 0 6.563 6.563 0 0 0-5.403-2.939 9.89 9.89 0 0 1 8.745-8.75zM14.76 60.86L8.75 35.97a4.375 4.375 0 1 1 8.75.123c0 .04.019.072.022.11h-.016l3.137 30.335a7.62 7.62 0 0 1-5.884-5.68zm40.482 0a7.617 7.617 0 0 1-5.884 5.687L52.5 36.203h-.016c0-.038.021-.071.021-.11a4.375 4.375 0 1 1 8.75-.122L55.241 60.86zM13.125 15.313l2.539-1.27a3.324 3.324 0 0 0 1.836-2.97 2.322 2.322 0 0 0-3.208-2.146 2.32 2.32 0 0 0-.752.503l-.415.414-.415-.414a2.32 2.32 0 0 0-3.96 1.642 3.323 3.323 0 0 0 1.838 2.973l2.537 1.268z"></path></svg>