<svg xmlns="http://www.w3.org/2000/svg" width="70" height="70" fill="none" viewBox="0 0 70 70"><path fill="currentColor" d="M15.876 14.643l.033.013c2.306.924 4.978-.182 5.956-2.466l.053-.124c1.396-3.259 4.465-5.284 8.01-5.284 3.546 0 6.616 2.025 8.011 5.284l.053.124c.979 2.284 3.65 3.39 5.957 2.466l.11-.044c3.291-1.319 6.894-.58 9.402 1.927 2.508 2.508 3.246 6.11 1.927 9.403l-.044.11c-.924 2.306.182 4.978 2.466 5.956l.124.052c3.26 1.396 5.284 4.466 5.284 8.011 0 3.546-2.025 6.616-5.284 8.011a4.62 4.62 0 0 0-2.43 6.043 12.21 12.21 0 0 0 4.463 5.4C66.438 52.94 70 44.245 70 35c0-9.349-3.64-18.138-10.251-24.749C53.139 3.641 44.349 0 34.999 0c-9.318 0-18.08 3.618-24.684 10.189a12.197 12.197 0 0 0 5.561 4.454z"></path><path fill="currentColor" d="M51.729 55.728c-1.873-4.41.187-9.53 4.59-11.416 1.752-.75 2.798-2.335 2.798-4.24 0-1.906-1.046-3.49-2.797-4.24l-.123-.054a8.668 8.668 0 0 1-4.622-4.676 8.666 8.666 0 0 1-.038-6.575l.044-.11c.709-1.77.328-3.63-1.02-4.978-1.347-1.347-3.208-1.728-4.977-1.02l-.11.044a8.668 8.668 0 0 1-6.574-.037 8.667 8.667 0 0 1-4.678-4.622l-.053-.123c-.75-1.752-2.335-2.797-4.24-2.797-1.905 0-3.49 1.045-4.24 2.796l-.053.125a8.667 8.667 0 0 1-4.677 4.62 8.668 8.668 0 0 1-6.575.038l-.033-.013a16.26 16.26 0 0 1-6.828-5.134C2.647 19.469 0 27.031 0 35c0 9.349 3.64 18.138 10.251 24.749C16.861 66.359 25.651 70 35 70c8.044 0 15.672-2.697 21.855-7.66a16.28 16.28 0 0 1-5.126-6.612zM10.133 32.762l2.9-2.9 2.772 2.771-2.9 2.9-2.772-2.77zm4.157 16.352l-2.771-2.771 2.9-2.9 2.772 2.77-2.9 2.901zm9.367 9.367l-2.771-2.771 2.9-2.9 2.771 2.77-2.9 2.901zm13.58 1.386l-2.77-2.772 2.9-2.9 2.771 2.772-2.9 2.9zM35 47.03c-6.645 0-12.031-5.386-12.031-12.031 0-6.645 5.386-12.031 12.031-12.031 6.645 0 12.031 5.386 12.031 12.031 0 6.645-5.386 12.031-12.031 12.031z"></path></svg>