<svg xmlns="http://www.w3.org/2000/svg" width="70" height="70" fill="none" viewBox="0 0 70 70"><g fill="currentColor"><path d="M1.201 45.597a4.1 4.1 0 0 0 4.513.872 31.188 31.188 0 0 0 4.34 7.676l-1.119 1.119a4.106 4.106 0 0 0 0 5.8 4.099 4.099 0 0 0 5.8 0l1.12-1.12a31.188 31.188 0 0 0 7.677 4.342 4.1 4.1 0 0 0 6.671 4.512L35 64.001l4.796 4.796a4.1 4.1 0 0 0 6.672-4.512 31.186 31.186 0 0 0 7.677-4.341l1.12 1.118a4.099 4.099 0 0 0 5.8 0 4.106 4.106 0 0 0 0-5.799l-1.12-1.12a31.19 31.19 0 0 0 4.34-7.675 4.1 4.1 0 0 0 4.513-.872 4.1 4.1 0 0 0 0-5.801L64.001 35l4.796-4.796a4.1 4.1 0 0 0 0-5.801 4.1 4.1 0 0 0-4.512-.873 31.19 31.19 0 0 0-4.34-7.675l1.118-1.12a4.106 4.106 0 0 0 0-5.799 4.099 4.099 0 0 0-5.8 0l-1.119 1.119a31.185 31.185 0 0 0-7.677-4.342 4.1 4.1 0 0 0-6.671-4.512l-4.797 4.797-4.796-4.796a4.1 4.1 0 0 0-6.671 4.511 31.184 31.184 0 0 0-7.678 4.342l-1.119-1.119a4.099 4.099 0 0 0-5.8 0 4.106 4.106 0 0 0 0 5.8l1.119 1.119a31.187 31.187 0 0 0-4.34 7.675 4.1 4.1 0 0 0-4.513.873 4.1 4.1 0 0 0 0 5.8L5.997 35l-4.796 4.795a4.1 4.1 0 0 0 0 5.802zm6.75-.95l3.846-3.847 5.8 5.8-5.592 5.594a28.451 28.451 0 0 1-4.054-7.547zm17.4 17.401a28.457 28.457 0 0 1-7.546-4.054l5.594-5.593 5.8 5.8-3.847 3.847zM40.8 58.202l5.8-5.8 5.594 5.592a28.453 28.453 0 0 1-7.546 4.054L40.8 58.202zM52.401 46.6l5.8-5.8 3.847 3.847a28.455 28.455 0 0 1-4.054 7.547L52.4 46.6zm9.647-21.248L58.2 29.2l-5.8-5.8 5.593-5.594a28.451 28.451 0 0 1 4.054 7.546zm-17.402-17.4c2.71.964 5.24 2.323 7.547 4.053L46.6 17.598l-5.801-5.8 3.847-3.847zm-19.294 0l3.847 3.846-5.8 5.8-5.594-5.593a28.453 28.453 0 0 1 7.547-4.054zm-7.754 15.447l-5.8 5.8-3.847-3.847a28.454 28.454 0 0 1 4.054-7.547l5.593 5.594zM3.135 41.73l5.762-5.763c.534-.534.534-1.4 0-1.933L3.135 28.27a1.367 1.367 0 0 1 1.933-1.934L10.83 32.1c.535.535 1.4.533 1.934 0l7.734-7.734c.534-.534.534-1.4 0-1.933l-9.63-9.63a1.366 1.366 0 1 1 1.933-1.933l9.631 9.628c.534.534 1.4.534 1.934 0l7.734-7.734c.533-.533.533-1.4 0-1.933l-5.764-5.763a1.367 1.367 0 0 1 1.934-1.933l5.762 5.763c.534.534 1.4.534 1.934 0l5.762-5.763a1.367 1.367 0 0 1 1.935 1.933l-5.764 5.763a1.368 1.368 0 0 0 0 1.933l7.734 7.734a1.366 1.366 0 0 0 1.933 0l9.63-9.629a1.366 1.366 0 1 1 1.933 1.934l-9.629 9.63a1.368 1.368 0 0 0 0 1.933l7.734 7.734c.534.534 1.4.534 1.934 0l5.762-5.764a1.367 1.367 0 0 1 1.933 1.934l-5.762 5.763a1.367 1.367 0 0 0 0 1.934l5.762 5.762a1.367 1.367 0 0 1-1.933 1.934L59.168 37.9a1.366 1.366 0 0 0-1.934 0L49.5 45.633a1.368 1.368 0 0 0 0 1.934l9.63 9.63a1.366 1.366 0 1 1-1.933 1.933l-9.63-9.629a1.367 1.367 0 0 0-1.934 0l-7.734 7.734a1.368 1.368 0 0 0 0 1.934l5.764 5.762a1.367 1.367 0 0 1-1.934 1.933l-5.763-5.763a1.367 1.367 0 0 0-1.934 0l-5.762 5.763a1.368 1.368 0 0 1-1.934-1.933l5.763-5.762c.534-.534.534-1.4 0-1.934l-7.733-7.734a1.367 1.367 0 0 0-1.934 0l-9.63 9.629a1.366 1.366 0 1 1-1.933-1.933l9.629-9.63c.534-.534.534-1.4 0-1.934L12.764 37.9a1.368 1.368 0 0 0-1.934 0l-5.762 5.764a1.367 1.367 0 0 1-1.933-1.934z"></path><path d="M37.9 35.967l7.734 7.734c.534.533 1.4.534 1.933 0l7.734-7.734c.534-.534.534-1.4 0-1.934L47.567 26.3a1.368 1.368 0 0 0-1.933 0L37.9 34.033a1.367 1.367 0 0 0 0 1.934zm8.7-6.767l5.801 5.8-5.8 5.8-5.8-5.8 5.8-5.8zm-12.567 2.9c.534.534 1.4.534 1.934 0l7.734-7.734c.533-.533.534-1.4 0-1.933l-7.734-7.734a1.368 1.368 0 0 0-1.934 0L26.3 22.433a1.368 1.368 0 0 0 0 1.933l7.734 7.734zM35 17.6l5.8 5.8-5.8 5.8-5.8-5.8 5.8-5.801zM22.433 43.7c.534.534 1.4.535 1.934 0l7.734-7.733c.534-.534.534-1.4 0-1.934L24.367 26.3a1.368 1.368 0 0 0-1.934 0L14.7 34.033a1.368 1.368 0 0 0 0 1.934l7.734 7.734zm.967-14.5l5.8 5.8-5.8 5.8-5.8-5.8 5.8-5.8zM35 40.468a1.367 1.367 0 1 0 0-2.734 1.367 1.367 0 0 0 0 2.734zm5.431 1.896a1.367 1.367 0 0 0-1.933 1.933L40.8 46.6 35 52.401l-5.801-5.8 2.303-2.304a1.367 1.367 0 0 0-1.934-1.933l-3.27 3.27a1.368 1.368 0 0 0 0 1.933l7.734 7.734c.534.534 1.4.534 1.934 0l7.734-7.734c.533-.534.534-1.4 0-1.934l-3.27-3.27z"></path></g></svg>