<svg xmlns="http://www.w3.org/2000/svg" width="63" height="63" fill="none" viewBox="0 0 63 63"><g fill="currentColor"><path d="M17.063 49.875h-5.25a1.313 1.313 0 0 1 0-2.625h5.25a1.313 1.313 0 0 1 0 2.625zm42.657 0h-3.282a1.313 1.313 0 0 1 0-2.625h2.192l1.77-9.43c-.024-4.824-4.146-8.945-9.212-8.945H42.57L38.394 47.25h7.544a1.313 1.313 0 0 1 0 2.625H36.75a1.313 1.313 0 0 1-1.28-1.602l4.772-21a1.311 1.311 0 0 1 1.28-1.023h9.666c6.513 0 11.813 5.3 11.813 11.812l-1.993 10.742a1.309 1.309 0 0 1-1.289 1.07z"></path><path d="M51.188 55.125a6.57 6.57 0 0 1-6.563-6.563A6.57 6.57 0 0 1 51.188 42a6.57 6.57 0 0 1 6.562 6.562 6.57 6.57 0 0 1-6.563 6.563zm0-10.5a3.942 3.942 0 0 0-3.938 3.937 3.942 3.942 0 0 0 3.938 3.938 3.942 3.942 0 0 0 3.937-3.938 3.942 3.942 0 0 0-3.938-3.937zm-28.875 10.5a6.57 6.57 0 0 1-6.563-6.563A6.57 6.57 0 0 1 22.313 42a6.57 6.57 0 0 1 6.562 6.562 6.57 6.57 0 0 1-6.563 6.563zm0-10.5a3.942 3.942 0 0 0-3.938 3.937 3.942 3.942 0 0 0 3.938 3.938 3.942 3.942 0 0 0 3.937-3.938 3.942 3.942 0 0 0-3.938-3.937zm-5.25-18.375h-10.5a1.313 1.313 0 0 1 0-2.625h10.5a1.313 1.313 0 0 1 0 2.625zm0 7.875H3.938a1.313 1.313 0 0 1 0-2.625h13.124a1.313 1.313 0 0 1 0 2.625zm0 7.875H1.313a1.313 1.313 0 0 1 0-2.625h15.75a1.313 1.313 0 0 1 0 2.625z"></path><path d="M36.75 49.875h-9.188a1.313 1.313 0 0 1 0-2.625h8.14L41.668 21H11.812a1.313 1.313 0 0 1 0-2.625h31.5a1.313 1.313 0 0 1 1.282 1.601L38.03 48.851a1.314 1.314 0 0 1-1.281 1.024z"></path></g></svg>