<svg xmlns="http://www.w3.org/2000/svg" width="63" height="63" fill="none" viewBox="0 0 63 63"><path fill="currentColor" d="M39.206 6.34H23.794C10.45 6.34 0 11.111 0 17.205c0 1.636.732 3.194 2.177 4.634.512.508.806 1.234.806 1.992v9.07a.923.923 0 0 0 1.845 0v-9.07c0-1.246-.492-2.45-1.35-3.301-1.083-1.08-1.632-2.198-1.632-3.325 0-2.233 2.239-4.488 6.144-6.185 4.206-1.829 9.818-2.836 15.804-2.836 5.985 0 11.597 1.007 15.803 2.836 3.905 1.697 6.144 3.952 6.144 6.185 0 1.127-.55 2.246-1.632 3.324-.858.852-1.35 2.056-1.35 3.302v18.644a.923.923 0 1 0 1.846 0V23.832c0-.758.293-1.484.806-1.993 1.444-1.438 2.176-2.997 2.176-4.633 0-3.8-4.063-7.085-10.357-9.021h1.976c5.985 0 11.598 1.007 15.804 2.836 3.905 1.697 6.144 3.952 6.144 6.185 0 1.127-.55 2.246-1.632 3.324-.858.852-1.35 2.056-1.35 3.302v1.995a.923.923 0 0 0 1.845 0v-1.995c0-.758.294-1.484.806-1.993C62.269 20.4 63 18.842 63 17.206c0-6.094-10.451-10.867-23.794-10.867z"></path><path fill="currentColor" d="M59.094 29.224a.923.923 0 0 0-.923.922v23.106c0 .862-.701 1.563-1.563 1.563H44.223c.243-.468.381-1 .381-1.563v-6.457a.923.923 0 1 0-1.846 0v6.457c0 .862-.701 1.563-1.563 1.563H6.392a1.565 1.565 0 0 1-1.564-1.563v-16.03a.923.923 0 1 0-1.846 0v16.03c0 1.88 1.53 3.409 3.41 3.409h50.216c1.88 0 3.41-1.53 3.41-3.409V30.146a.923.923 0 0 0-.924-.922z"></path><path fill="currentColor" d="M7.884 52.683h31.82c.51 0 .923-.413.923-.923V23.831c0-1.808.72-3.562 1.978-4.812.458-.456 1.005-1.14 1.005-1.813 0-1.053-1.504-2.77-4.862-4.23-3.887-1.69-9.338-2.66-14.954-2.66-5.617 0-11.068.97-14.954 2.66-3.36 1.46-4.862 3.176-4.862 4.23 0 .672.546 1.357 1.004 1.812 1.258 1.25 1.979 3.005 1.979 4.813v27.93c0 .509.413.922.923.922zm-1.6-34.973a2.802 2.802 0 0 1-.418-.506c.238-.391 1.208-1.448 3.71-2.536 3.663-1.592 8.845-2.506 14.218-2.506 5.372 0 10.555.914 14.218 2.506 2.501 1.088 3.471 2.145 3.71 2.537a2.805 2.805 0 0 1-.419.505c-1.603 1.594-2.522 3.825-2.522 6.121v27.006H8.806V23.831c0-2.296-.92-4.527-2.522-6.121z"></path><path fill="currentColor" d="M12.483 24.29a1.243 1.243 0 1 0 0-2.485 1.243 1.243 0 0 0 0 2.486zm0-4.971a1.243 1.243 0 1 0 0-2.486 1.243 1.243 0 0 0 0 2.486zm4.971 0a1.243 1.243 0 1 0 0-2.486 1.243 1.243 0 0 0 0 2.486z"></path></svg>