<svg xmlns="http://www.w3.org/2000/svg" width="63" height="63" fill="none" viewBox="0 0 63 63"><g fill="currentColor"><path d="M53.298 19.762l-2.958-3.588a3.175 3.175 0 0 1-.714-1.724l-.446-4.629a5.068 5.068 0 0 0-4.55-4.55L40 4.824a3.181 3.181 0 0 1-1.724-.714l-3.588-2.958a5.068 5.068 0 0 0-6.436 0L24.665 4.11a3.178 3.178 0 0 1-1.724.714l-4.629.445a5.069 5.069 0 0 0-4.55 4.551l-.446 4.63a3.182 3.182 0 0 1-.714 1.723l-2.958 3.588a5.068 5.068 0 0 0 0 6.436l2.958 3.588c.406.493.653 1.089.714 1.724l.445 4.63a5.069 5.069 0 0 0 4.551 4.55l2.83.272-6.723 16.065c-.182.438-.1.93.215 1.285.315.354.793.494 1.248.365l5.832-1.647a.053.053 0 0 1 .062.025l2.92 5.31a1.214 1.214 0 0 0 1.135.633 1.22 1.22 0 0 0 1.068-.75l7.098-16.962c.24-.138.472-.297.692-.478l3.589-2.958a3.173 3.173 0 0 1 1.578-.695l6.429 15.361-4.55-1.284a1.915 1.915 0 0 0-2.205.922l-2.278 4.142-3.018-7.212a.934.934 0 0 0-1.723.72l3.535 8.45c.185.435.593.72 1.066.744l.064.002c.447 0 .853-.239 1.07-.634l2.92-5.31a.054.054 0 0 1 .062-.026l5.832 1.647c.456.129.934-.011 1.249-.365.314-.355.397-.847.214-1.286L41.8 40.962l2.83-.273a5.068 5.068 0 0 0 4.55-4.55l.446-4.63c.06-.634.308-1.23.714-1.723l2.958-3.588a5.067 5.067 0 0 0 0-6.436zM25.69 60.296l-2.279-4.143a1.914 1.914 0 0 0-2.205-.921l-4.549 1.284 6.428-15.36a3.172 3.172 0 0 1 1.579.693l3.588 2.959a5.05 5.05 0 0 0 3.439 1.147L25.69 60.296zM51.856 25.01l-2.958 3.588a5.038 5.038 0 0 0-1.132 2.733l-.446 4.629a3.196 3.196 0 0 1-2.87 2.87l-4.066.392a.56.56 0 0 0-.048.004l-.515.05a5.04 5.04 0 0 0-2.733 1.132L33.5 43.366a3.196 3.196 0 0 1-4.059 0l-3.588-2.958a5.036 5.036 0 0 0-2.733-1.132l-.518-.05a.618.618 0 0 0-.042-.004l-4.07-.392a3.196 3.196 0 0 1-2.87-2.87l-.445-4.629a5.037 5.037 0 0 0-1.132-2.733l-2.958-3.588a3.196 3.196 0 0 1 0-4.06l2.958-3.588a5.037 5.037 0 0 0 1.132-2.733l.446-4.63a3.196 3.196 0 0 1 2.87-2.869l4.629-.446a5.04 5.04 0 0 0 2.733-1.132l3.588-2.957a3.186 3.186 0 0 1 2.03-.728c.72 0 1.44.243 2.029.728l3.588 2.957a5.037 5.037 0 0 0 2.733 1.132l4.63.446A3.196 3.196 0 0 1 47.32 10l.445 4.63a5.038 5.038 0 0 0 1.132 2.732l2.958 3.589a3.197 3.197 0 0 1 0 4.059z"></path><path d="M31.47 8.387c-.624 0-1.252.04-1.867.118a.934.934 0 0 0 .237 1.853 12.858 12.858 0 0 1 1.63-.103c7.017 0 12.726 5.709 12.726 12.726 0 7.017-5.71 12.725-12.726 12.725-7.017 0-12.726-5.709-12.726-12.726a12.75 12.75 0 0 1 7.519-11.615.934.934 0 1 0-.766-1.704 14.622 14.622 0 0 0-8.621 13.32c0 8.047 6.547 14.593 14.594 14.593s14.594-6.546 14.594-14.594c0-8.047-6.547-14.593-14.594-14.593z"></path><path d="M22.193 21.898a2.86 2.86 0 0 0 0 4.04l4.08 4.08a2.84 2.84 0 0 0 2.02.837 2.84 2.84 0 0 0 2.02-.837l8.907-8.907a2.86 2.86 0 0 0 0-4.04 2.86 2.86 0 0 0-4.04 0l-6.887 6.887-2.06-2.06a2.86 2.86 0 0 0-4.04 0zm6.1 4.316a.934.934 0 0 0 .66-.274l7.548-7.548A.99.99 0 0 1 37.9 19.79l-8.907 8.907a.982.982 0 0 1-.699.29.982.982 0 0 1-.699-.29l-4.08-4.08a.99.99 0 0 1 .699-1.687.98.98 0 0 1 .698.289l2.721 2.72a.935.935 0 0 0 .661.275z"></path></g></svg>