<svg xmlns="http://www.w3.org/2000/svg" width="63" height="63" fill="none" viewBox="0 0 63 63"><g fill="currentColor"><path d="M31.5 60.375a1.32 1.32 0 0 1-1.005-.467L.307 24.053a1.312 1.312 0 0 1-.147-1.475l10.584-19.27c.231-.42.672-.683 1.15-.683h39.212c.48 0 .922.263 1.15.683l10.581 19.27c.263.475.203 1.06-.147 1.475L32.504 59.908a1.31 1.31 0 0 1-1.003.467zM2.898 23.05L31.5 57.026 60.102 23.05 50.33 5.25H12.671l-9.773 17.8z"></path><path d="M61.031 24.937H1.97a1.313 1.313 0 0 1 0-2.625h59.06a1.313 1.313 0 0 1 0 2.625z"></path><path d="M44.789 24.2c-.412 0-.82-.194-1.074-.56L31.506 6.23 19.452 23.548a1.31 1.31 0 0 1-1.824.328 1.309 1.309 0 0 1-.328-1.827L30.425 3.187a1.308 1.308 0 0 1 1.073-.562h.003c.428 0 .827.208 1.074.56l13.287 18.95a1.31 1.31 0 0 1-.32 1.826c-.226.16-.49.239-.753.239z"></path><path d="M31.5 60.375c-.556 0-1.05-.349-1.236-.871L10.658 4.379a1.315 1.315 0 0 1 .795-1.678 1.303 1.303 0 0 1 1.677.796l18.37 51.65 18.37-51.65a1.31 1.31 0 0 1 1.677-.796 1.31 1.31 0 0 1 .796 1.678L32.736 59.504c-.186.522-.68.871-1.236.871z"></path></g></svg>