<svg xmlns="http://www.w3.org/2000/svg" width="50" height="50" fill="none" viewBox="0 0 50 50"><path stroke="currentColor" stroke-width="2" d="M16.666 18.333H20h-3.334zM30 31.667h3.333H30zm3.333-15L16.667 33.333l16.666-16.666zM22.67 2.633L18.906 6.39a3.293 3.293 0 0 1-2.326.967h-5.927A3.293 3.293 0 0 0 7.36 10.65v5.927a3.294 3.294 0 0 1-.967 2.326l-3.76 3.77a3.293 3.293 0 0 0 0 4.657L6.4 31.093a3.29 3.29 0 0 1 .963 2.327v5.927a3.292 3.292 0 0 0 3.293 3.293h5.927c.873 0 1.71.347 2.327.967l3.767 3.763a3.294 3.294 0 0 0 4.656 0l3.764-3.767a3.293 3.293 0 0 1 2.326-.963h5.927a3.293 3.293 0 0 0 3.293-3.293V33.42c0-.873.347-1.71.967-2.327l3.763-3.766a3.293 3.293 0 0 0 0-4.657l-3.767-3.763a3.294 3.294 0 0 1-.963-2.327v-5.927A3.293 3.293 0 0 0 39.35 7.36h-5.927a3.293 3.293 0 0 1-2.327-.967l-3.77-3.76a3.293 3.293 0 0 0-4.656 0v0z"></path></svg>