<svg xmlns="http://www.w3.org/2000/svg" width="52" height="53" fill="none" viewBox="0 0 52 53"><path fill="currentColor" d="M19.407 0c1.899 0 3.323.904 4.273 2.713 1.068 1.689 1.187 3.497.356 5.427-2.137 4.944-3.442 8.984-3.917 12.12-.475 3.135-.534 5.848-.178 8.14a110.074 110.074 0 0 0 1.602 6.692c.594 2.05.89 4.402.89 7.055 0 3.135-1.068 5.728-3.204 7.778C17.092 51.975 14.54 53 11.573 53c-3.68 0-6.528-1.568-8.546-4.703C1.009 45.16 0 41.242 0 36.539c0-3.135.653-6.753 1.958-10.853a86.311 86.311 0 0 1 4.808-11.939c2.018-3.98 4.154-7.235 6.41-9.767C15.43 1.327 17.507 0 19.405 0zm27.419 0c1.899 0 3.323.904 4.273 2.713 1.068 1.689 1.187 3.497.356 5.427-2.137 4.944-3.442 8.984-3.917 12.12-.475 3.135-.534 5.848-.178 8.14a110 110 0 0 0 1.602 6.692c.594 2.05.89 4.402.89 7.055 0 3.135-1.068 5.728-3.204 7.778C44.51 51.975 41.959 53 38.992 53c-3.68 0-6.529-1.568-8.546-4.703-2.018-3.136-3.027-7.055-3.027-11.758 0-3.135.653-6.753 1.958-10.853a86.297 86.297 0 0 1 4.808-11.939c2.017-3.98 4.154-7.235 6.41-9.767C42.848 1.327 44.925 0 46.824 0z"></path></svg>