<svg xmlns="http://www.w3.org/2000/svg" width="71" height="63" fill="none" viewBox="0 0 71 63"><path fill="currentColor" d="M29.8 0l4.032 5.184c-9.216 8.256-14.976 17.856-17.28 28.8 3.84 0 6.72 1.152 8.64 3.456 1.92 2.304 2.88 5.568 2.88 9.792s-1.632 7.776-4.896 10.656c-3.072 2.88-6.624 4.32-10.656 4.32-3.84 0-6.816-1.056-8.928-3.168C1.48 56.736.424 53.76.424 50.112.424 33.024 10.216 16.32 29.8 0zm36.288 0l4.032 5.184c-9.792 8.832-15.552 18.432-17.28 28.8 3.648 0 6.432 1.248 8.352 3.744 2.112 2.304 3.168 5.568 3.168 9.792 0 4.032-1.632 7.488-4.896 10.368-3.072 2.88-6.624 4.32-10.656 4.32-3.84 0-6.816-1.056-8.928-3.168-2.112-2.304-3.168-5.28-3.168-8.928 0-18.432 9.792-35.136 29.376-50.112z"></path></svg>